<svg width="77" height="192" viewBox="0 0 77 192" fill="none" xmlns="http://www.w3.org/2000/svg">
<path d="M29.0146 15.0947L29.1642 14.9478V14.7381V9.9044V9.69471L29.0146 9.54775L25.5329 6.12678L25.387 5.98342H25.1825H20.2982H20.0937L19.9478 6.12678L16.4661 9.54775L16.3165 9.69471V9.9044V14.7381V14.9478L16.4661 15.0947L19.9478 18.5157L20.0937 18.6591H20.2982H25.1825H25.387L25.5329 18.5157L29.0146 15.0947ZM11.8403 7.85371L18.2606 1.5H27.2997L33.7199 7.85371V16.7888L27.2997 23.1425H18.2606L11.8403 16.7888V7.85371Z" fill="#361281" stroke="#54F2F2"/>
<path d="M27.5053 1H18.055L11.3403 7.64507V16.9974L18.055 23.6425H27.5053L34.2199 16.9974V7.64507L27.5053 1ZM28.6642 14.7381L25.1825 18.1591H20.2982L16.8165 14.7381V9.9044L20.2982 6.48342H25.1825L28.6642 9.9044V14.7381Z" fill="#361281" stroke="#54F2F2" stroke-width="2" stroke-miterlimit="10"/>
<path d="M70.7946 15.0947L70.9442 14.9478V14.7381V9.9044V9.69471L70.7946 9.54775L67.3129 6.12678L67.1671 5.98342H66.9625H62.0782H61.8737L61.7278 6.12678L58.2461 9.54775L58.0965 9.69471V9.9044V14.7381V14.9478L58.2461 15.0947L61.7278 18.5157L61.8737 18.6591H62.0782H66.9625H67.1671L67.3129 18.5157L70.7946 15.0947ZM53.6204 7.85371L60.0406 1.5H69.0797L75.4999 7.85371V16.7888L69.0797 23.1425H60.0406L53.6204 16.7888V7.85371Z" fill="#361281" stroke="#54F2F2"/>
<path d="M69.2853 1H59.835L53.1204 7.64507V16.9974L59.835 23.6425H69.2853L75.9999 16.9974V7.64507L69.2853 1ZM70.4442 14.7381L66.9625 18.1591H62.0782L58.5965 14.7381V9.9044L62.0782 6.48342H66.9625L70.4442 9.9044V14.7381Z" fill="#361281" stroke="#54F2F2" stroke-width="2" stroke-miterlimit="10"/>
<path d="M29.0146 56.9341L29.1642 56.7871V56.5774V51.7438V51.5341L29.0146 51.3871L25.5329 47.9661L25.387 47.8228H25.1825H20.2982H20.0937L19.9478 47.9661L16.4661 51.3871L16.3165 51.5341V51.7438V56.5774V56.7871L16.4661 56.9341L19.9478 60.3551L20.0937 60.4984H20.2982H25.1825H25.387L25.5329 60.3551L29.0146 56.9341ZM11.8403 49.6931L18.2606 43.3394H27.2997L33.7199 49.6931V58.6281L27.2997 64.9818H18.2606L11.8403 58.6281V49.6931Z" fill="#361281" stroke="#54F2F2"/>
<path d="M27.5053 42.8394H18.055L11.3403 49.4844V58.8368L18.055 65.4818H27.5053L34.2199 58.8368V49.4844L27.5053 42.8394ZM28.6642 56.5774L25.1825 59.9984H20.2982L16.8165 56.5774V51.7438L20.2982 48.3228H25.1825L28.6642 51.7438V56.5774Z" fill="#361281" stroke="#54F2F2" stroke-width="2" stroke-miterlimit="10"/>
<path d="M70.7946 56.9341L70.9442 56.7871V56.5774V51.7438V51.5341L70.7946 51.3871L67.3129 47.9661L67.1671 47.8228H66.9625H62.0782H61.8737L61.7278 47.9661L58.2461 51.3871L58.0965 51.5341V51.7438V56.5774V56.7871L58.2461 56.9341L61.7278 60.3551L61.8737 60.4984H62.0782H66.9625H67.1671L67.3129 60.3551L70.7946 56.9341ZM53.6204 49.6931L60.0406 43.3394H69.0797L75.4999 49.6931V58.6281L69.0797 64.9818H60.0406L53.6204 58.6281V49.6931Z" fill="#361281" stroke="#54F2F2"/>
<path d="M69.2853 42.8394H59.835L53.1204 49.4844V58.8368L59.835 65.4818H69.2853L75.9999 58.8368V49.4844L69.2853 42.8394ZM70.4442 56.5774L66.9625 59.9984H62.0782L58.5965 56.5774V51.7438L62.0782 48.3228H66.9625L70.4442 51.7438V56.5774Z" fill="#361281" stroke="#54F2F2" stroke-width="2" stroke-miterlimit="10"/>
<path d="M29.0159 98.7722L29.1642 98.6254V98.4168V93.5831V93.3745L29.0159 93.2277L25.5342 89.7821L25.3881 89.6375H25.1825H20.2982H20.0926L19.9465 89.7821L16.4648 93.2277L16.3165 93.3745V93.5831V98.4168V98.6254L16.4648 98.7722L19.9465 102.218L20.0926 102.362H20.2982H25.1825H25.3881L25.5342 102.218L29.0159 98.7722ZM11.8403 91.5324L18.2606 85.1787H27.2997L33.7199 91.5324V100.467L27.2997 106.821H18.2606L11.8403 100.467V91.5324Z" fill="#361281" stroke="#54F2F2"/>
<path d="M27.5053 84.6787H18.055L11.3403 91.3238V100.676L18.055 107.321H27.5053L34.2199 100.676V91.3238L27.5053 84.6787ZM28.6642 98.4168L25.1825 101.862H20.2982L16.8165 98.4168V93.5831L20.2982 90.1375H25.1825L28.6642 93.5831V98.4168Z" fill="#361281" stroke="#54F2F2" stroke-width="2" stroke-miterlimit="10"/>
<path d="M70.7959 98.7722L70.9442 98.6254V98.4168V93.5831V93.3745L70.7959 93.2277L67.3142 89.7821L67.1681 89.6375H66.9625H62.0782H61.8726L61.7265 89.7821L58.2448 93.2277L58.0965 93.3745V93.5831V98.4168V98.6254L58.2448 98.7722L61.7265 102.218L61.8726 102.362H62.0782H66.9625H67.1681L67.3142 102.218L70.7959 98.7722ZM53.6204 91.5324L60.0406 85.1787H69.0797L75.4999 91.5324V100.467L69.0797 106.821H60.0406L53.6204 100.467V91.5324Z" fill="#361281" stroke="#54F2F2"/>
<path d="M69.2853 84.6787H59.835L53.1204 91.3238V100.676L59.835 107.321H69.2853L75.9999 100.676V91.3238L69.2853 84.6787ZM70.4442 98.4168L66.9625 101.862H62.0782L58.5965 98.4168V93.5831L62.0782 90.1375H66.9625L70.4442 93.5831V98.4168Z" fill="#361281" stroke="#54F2F2" stroke-width="2" stroke-miterlimit="10"/>
<path d="M29.0159 140.612L29.1642 140.465V140.256V135.422V135.214L29.0159 135.067L25.5342 131.621L25.3881 131.477H25.1825H20.2982H20.0926L19.9465 131.621L16.4648 135.067L16.3165 135.214V135.422V140.256V140.465L16.4648 140.612L19.9465 144.057L20.0926 144.202H20.2982H25.1825H25.3881L25.5342 144.057L29.0159 140.612ZM11.8403 133.372L18.2606 127.018H27.2997L33.7199 133.372V142.307L27.2997 148.661H18.2606L11.8403 142.307V133.372Z" fill="#361281" stroke="#54F2F2"/>
<path d="M27.5053 126.518H18.055L11.3403 133.163V142.515L18.055 149.161H27.5053L34.2199 142.515V133.163L27.5053 126.518ZM28.6642 140.256L25.1825 143.702H20.2982L16.8165 140.256V135.422L20.2982 131.977H25.1825L28.6642 135.422V140.256Z" fill="#361281" stroke="#54F2F2" stroke-width="2" stroke-miterlimit="10"/>
<path d="M70.7959 140.612L70.9442 140.465V140.256V135.422V135.214L70.7959 135.067L67.3142 131.621L67.1681 131.477H66.9625H62.0782H61.8726L61.7265 131.621L58.2448 135.067L58.0965 135.214V135.422V140.256V140.465L58.2448 140.612L61.7265 144.057L61.8726 144.202H62.0782H66.9625H67.1681L67.3142 144.057L70.7959 140.612ZM53.6204 133.372L60.0406 127.018H69.0797L75.4999 133.372V142.307L69.0797 148.661H60.0406L53.6204 142.307V133.372Z" fill="#361281" stroke="#54F2F2"/>
<path d="M69.2853 126.518H59.835L53.1204 133.163V142.515L59.835 149.161H69.2853L75.9999 142.515V133.163L69.2853 126.518ZM70.4442 140.256L66.9625 143.702H62.0782L58.5965 140.256V135.422L62.0782 131.977H66.9625L70.4442 135.422V140.256Z" fill="#361281" stroke="#54F2F2" stroke-width="2" stroke-miterlimit="10"/>
<path d="M29.0159 182.451L29.1642 182.304V182.095V177.262V177.053L29.0159 176.906L25.5342 173.461L25.3881 173.316H25.1825H20.2982H20.0926L19.9465 173.461L16.4648 176.906L16.3165 177.053V177.262V182.095V182.304L16.4648 182.451L19.9465 185.896L20.0926 186.041H20.2982H25.1825H25.3881L25.5342 185.896L29.0159 182.451ZM11.8403 175.211L18.2606 168.857H27.2997L33.7199 175.211V184.146L27.2997 190.5H18.2606L11.8403 184.146V175.211Z" fill="#361281" stroke="#54F2F2"/>
<path d="M27.5053 168.357H18.055L11.3403 175.002V184.355L18.055 191H27.5053L34.2199 184.355V175.002L27.5053 168.357ZM28.6642 182.095L25.1825 185.541H20.2982L16.8165 182.095V177.262L20.2982 173.816H25.1825L28.6642 177.262V182.095Z" fill="#361281" stroke="#54F2F2" stroke-width="2" stroke-miterlimit="10"/>
<path d="M70.7959 182.451L70.9442 182.304V182.095V177.262V177.053L70.7959 176.906L67.3142 173.461L67.1681 173.316H66.9625H62.0782H61.8726L61.7265 173.461L58.2448 176.906L58.0965 177.053V177.262V182.095V182.304L58.2448 182.451L61.7265 185.896L61.8726 186.041H62.0782H66.9625H67.1681L67.3142 185.896L70.7959 182.451ZM53.6204 175.211L60.0406 168.857H69.0797L75.4999 175.211V184.146L69.0797 190.5H60.0406L53.6204 184.146V175.211Z" fill="#361281" stroke="#54F2F2"/>
<path d="M69.2853 168.357H59.835L53.1204 175.002V184.355L59.835 191H69.2853L75.9999 184.355V175.002L69.2853 168.357ZM70.4442 182.095L66.9625 185.541H62.0782L58.5965 182.095V177.262L62.0782 173.816H66.9625L70.4442 177.262V182.095Z" fill="#361281" stroke="#54F2F2" stroke-width="2" stroke-miterlimit="10"/>
</svg>
