<svg width="354" height="338" viewBox="0 0 354 338" fill="none" xmlns="http://www.w3.org/2000/svg">
<path d="M40.829 10.308L23.5474 2L6.26566 10.308L2 28.9577L13.9566 43.9321H33.1382L45.0947 28.9577L40.829 10.308ZM28.6899 34.7213H18.4049L12.011 26.696L14.2946 16.6644L23.5565 12.214L32.8184 16.6644L35.1019 26.696L28.6899 34.7213Z" stroke="black" stroke-width="2" stroke-miterlimit="10"/>
<path d="M117.555 10.308L100.274 2L82.992 10.308L78.7263 28.9577L90.6829 43.9321H109.865L121.821 28.9577L117.555 10.308ZM105.416 34.7213H95.1312L88.7374 26.696L91.0209 16.6644L100.283 12.214L109.545 16.6644L111.828 26.696L105.416 34.7213Z" stroke="black" stroke-width="2" stroke-miterlimit="10"/>
<path d="M194.282 10.308L177 2L159.718 10.308L155.453 28.9577L167.409 43.9321H186.591L198.547 28.9577L194.282 10.308ZM182.143 34.7213H171.858L165.464 26.696L167.747 16.6644L177.009 12.214L186.271 16.6644L188.555 26.696L182.143 34.7213Z" stroke="black" stroke-width="2" stroke-miterlimit="10"/>
<path d="M271.008 10.308L253.726 2L236.445 10.308L232.179 28.9577L244.136 43.9321H263.317L275.274 28.9577L271.008 10.308ZM258.869 34.7213H248.584L242.19 26.696L244.474 16.6644L253.736 12.214L262.997 16.6644L265.281 26.696L258.869 34.7213Z" stroke="black" stroke-width="2" stroke-miterlimit="10"/>
<path d="M347.734 10.308L330.453 2L313.171 10.308L308.905 28.9577L320.862 43.9321H340.044L352 28.9577L347.734 10.308ZM335.595 34.7213H325.31L318.916 26.696L321.2 16.6644L330.462 12.214L339.724 16.6644L342.007 26.696L335.595 34.7213Z" stroke="black" stroke-width="2" stroke-miterlimit="10"/>
<path d="M40.829 87.8251L23.5474 79.5171L6.26566 87.8251L2 106.475L13.9566 121.449H33.1382L45.0947 106.475L40.829 87.8251ZM28.6899 112.238H18.4049L12.011 104.213L14.2946 94.1815L23.5565 89.7311L32.8184 94.1815L35.1019 104.213L28.6899 112.238Z" stroke="black" stroke-width="2" stroke-miterlimit="10"/>
<path d="M117.555 87.8251L100.274 79.5171L82.992 87.8251L78.7263 106.475L90.6829 121.449H109.865L121.821 106.475L117.555 87.8251ZM105.416 112.238H95.1312L88.7374 104.213L91.0209 94.1815L100.283 89.7311L109.545 94.1815L111.828 104.213L105.416 112.238Z" stroke="black" stroke-width="2" stroke-miterlimit="10"/>
<path d="M194.282 87.8251L177 79.5171L159.718 87.8251L155.453 106.475L167.409 121.449H186.591L198.547 106.475L194.282 87.8251ZM182.143 112.238H171.858L165.464 104.213L167.747 94.1815L177.009 89.7311L186.271 94.1815L188.555 104.213L182.143 112.238Z" stroke="black" stroke-width="2" stroke-miterlimit="10"/>
<path d="M271.008 87.8251L253.726 79.5171L236.445 87.8251L232.179 106.475L244.136 121.449H263.317L275.274 106.475L271.008 87.8251ZM258.869 112.238H248.584L242.19 104.213L244.474 94.1815L253.735 89.7311L262.997 94.1815L265.281 104.213L258.869 112.238Z" stroke="black" stroke-width="2" stroke-miterlimit="10"/>
<path d="M347.734 87.8251L330.453 79.5171L313.171 87.8251L308.905 106.475L320.862 121.449H340.043L352 106.475L347.734 87.8251ZM335.595 112.238H325.31L318.916 104.213L321.2 94.1815L330.462 89.7311L339.724 94.1815L342.007 104.213L335.595 112.238Z" stroke="black" stroke-width="2" stroke-miterlimit="10"/>
<path d="M40.829 165.342L23.5474 157.034L6.26566 165.342L2 183.991L13.9566 198.966H33.1382L45.0947 183.991L40.829 165.342ZM28.6899 189.755H18.4049L12.011 181.73L14.2946 171.698L23.5565 167.248L32.8184 171.698L35.1019 181.73L28.6899 189.755Z" stroke="black" stroke-width="2" stroke-miterlimit="10"/>
<path d="M117.555 165.342L100.274 157.034L82.992 165.342L78.7263 183.991L90.6829 198.966H109.865L121.821 183.991L117.555 165.342ZM105.416 189.755H95.1312L88.7374 181.73L91.0209 171.698L100.283 167.248L109.545 171.698L111.828 181.73L105.416 189.755Z" stroke="black" stroke-width="2" stroke-miterlimit="10"/>
<path d="M194.282 165.342L177 157.034L159.718 165.342L155.453 183.991L167.409 198.966H186.591L198.547 183.991L194.282 165.342ZM182.143 189.755H171.858L165.464 181.73L167.747 171.698L177.009 167.248L186.271 171.698L188.555 181.73L182.143 189.755Z" stroke="black" stroke-width="2" stroke-miterlimit="10"/>
<path d="M271.008 165.342L253.726 157.034L236.445 165.342L232.179 183.991L244.136 198.966H263.317L275.274 183.991L271.008 165.342ZM258.869 189.755H248.584L242.19 181.73L244.474 171.698L253.735 167.248L262.997 171.698L265.281 181.73L258.869 189.755Z" stroke="black" stroke-width="2" stroke-miterlimit="10"/>
<path d="M347.734 165.342L330.453 157.034L313.171 165.342L308.905 183.991L320.862 198.966H340.043L352 183.991L347.734 165.342ZM335.595 189.755H325.31L318.916 181.73L321.2 171.698L330.462 167.248L339.724 171.698L342.007 181.73L335.595 189.755Z" stroke="black" stroke-width="2" stroke-miterlimit="10"/>
<path d="M40.829 242.859L23.5474 234.551L6.26566 242.859L2 261.509L13.9566 276.483H33.1382L45.0947 261.509L40.829 242.859ZM28.6899 267.273H18.4049L12.011 259.247L14.2946 249.216L23.5565 244.765L32.8184 249.216L35.1019 259.247L28.6899 267.273Z" stroke="black" stroke-width="2" stroke-miterlimit="10"/>
<path d="M117.555 242.859L100.274 234.551L82.992 242.859L78.7263 261.509L90.6829 276.483H109.865L121.821 261.509L117.555 242.859ZM105.416 267.273H95.1312L88.7374 259.247L91.0209 249.216L100.283 244.765L109.545 249.216L111.828 259.247L105.416 267.273Z" stroke="black" stroke-width="2" stroke-miterlimit="10"/>
<path d="M194.282 242.859L177 234.551L159.718 242.859L155.453 261.509L167.409 276.483H186.591L198.547 261.509L194.282 242.859ZM182.143 267.273H171.858L165.464 259.247L167.747 249.216L177.009 244.765L186.271 249.216L188.555 259.247L182.143 267.273Z" stroke="black" stroke-width="2" stroke-miterlimit="10"/>
<path d="M271.008 242.859L253.726 234.551L236.445 242.859L232.179 261.509L244.136 276.483H263.317L275.274 261.509L271.008 242.859ZM258.869 267.273H248.584L242.19 259.247L244.474 249.216L253.735 244.765L262.997 249.216L265.281 259.247L258.869 267.273Z" stroke="black" stroke-width="2" stroke-miterlimit="10"/>
<path d="M347.734 242.859L330.453 234.551L313.171 242.859L308.905 261.509L320.862 276.483H340.043L352 261.509L347.734 242.859ZM335.595 267.273H325.31L318.916 259.247L321.2 249.216L330.462 244.765L339.724 249.216L342.007 259.247L335.595 267.273Z" stroke="black" stroke-width="2" stroke-miterlimit="10"/>
<path d="M40.829 320.376L23.5474 312.068L6.26566 320.376L2 339.026L13.9566 354H33.1382L45.0947 339.026L40.829 320.376ZM28.6899 344.789H18.4049L12.011 336.764L14.2946 326.732L23.5565 322.282L32.8184 326.732L35.1019 336.764L28.6899 344.789Z" stroke="black" stroke-width="2" stroke-miterlimit="10"/>
<path d="M117.555 320.376L100.274 312.068L82.992 320.376L78.7263 339.026L90.6829 354H109.865L121.821 339.026L117.555 320.376ZM105.416 344.789H95.1312L88.7374 336.764L91.0209 326.732L100.283 322.282L109.545 326.732L111.828 336.764L105.416 344.789Z" stroke="black" stroke-width="2" stroke-miterlimit="10"/>
<path d="M194.282 320.376L177 312.068L159.718 320.376L155.453 339.026L167.409 354H186.591L198.547 339.026L194.282 320.376ZM182.143 344.789H171.858L165.464 336.764L167.747 326.732L177.009 322.282L186.271 326.732L188.555 336.764L182.143 344.789Z" stroke="black" stroke-width="2" stroke-miterlimit="10"/>
<path d="M271.008 320.376L253.726 312.068L236.445 320.376L232.179 339.026L244.136 354H263.317L275.274 339.026L271.008 320.376ZM258.869 344.789H248.584L242.19 336.764L244.474 326.732L253.735 322.282L262.997 326.732L265.281 336.764L258.869 344.789Z" stroke="black" stroke-width="2" stroke-miterlimit="10"/>
<path d="M347.734 320.376L330.453 312.068L313.171 320.376L308.905 339.026L320.862 354H340.043L352 339.026L347.734 320.376ZM335.595 344.789H325.31L318.916 336.764L321.2 326.732L330.462 322.282L339.724 326.732L342.007 336.764L335.595 344.789Z" stroke="black" stroke-width="2" stroke-miterlimit="10"/>
</svg>
