<svg width="102" height="102" viewBox="0 0 102 102" fill="none" xmlns="http://www.w3.org/2000/svg">
<path d="M70.3251 4.35205H31.685L4.35876 31.6767V70.3229L31.685 97.6476H70.3251L97.6479 70.3229V31.6767L70.3251 4.35205Z" fill="#361281" stroke="#D5FF2F" stroke-width="2" stroke-miterlimit="10"/>
<path d="M61.8227 24.877H40.184L24.8823 40.1797V61.8198L40.184 77.1226H61.8227L77.1244 61.8198V40.1797L61.8227 24.877Z" fill="#361281" stroke="#D5FF2F" stroke-width="2" stroke-miterlimit="10"/>
<path d="M40.0719 24.7614L32.0555 4.35205" stroke="#D5FF2F" stroke-width="2" stroke-miterlimit="10"/>
<path d="M61.9384 24.7614L70.3184 4.35205" stroke="#D5FF2F" stroke-width="2" stroke-miterlimit="10"/>
<path d="M32.0555 4.35205L61.9383 24.7614" stroke="#D5FF2F" stroke-width="2" stroke-miterlimit="10"/>
<path d="M24.7667 40.0676L32.0555 4.35205" stroke="#D5FF2F" stroke-width="2" stroke-miterlimit="10"/>
<path d="M4.35876 31.6838L40.0718 24.7617" stroke="#D5FF2F" stroke-width="2" stroke-miterlimit="10"/>
<path d="M24.7667 40.0676L4.35876 31.6836" stroke="#D5FF2F" stroke-width="2" stroke-miterlimit="10"/>
<path d="M61.9384 24.7617L97.648 31.6838" stroke="#D5FF2F" stroke-width="2" stroke-miterlimit="10"/>
<path d="M40.0719 24.7614L70.3184 4.35205" stroke="#D5FF2F" stroke-width="2" stroke-miterlimit="10"/>
<path d="M77.2434 40.0676L70.3184 4.35205" stroke="#D5FF2F" stroke-width="2" stroke-miterlimit="10"/>
<path d="M77.2434 61.9321L97.648 70.3162" stroke="#D5FF2F" stroke-width="2" stroke-miterlimit="10"/>
<path d="M77.2434 40.0679L97.648 70.3164" stroke="#D5FF2F" stroke-width="2" stroke-miterlimit="10"/>
<path d="M97.6479 31.6836L77.24 61.9321" stroke="#D5FF2F" stroke-width="2" stroke-miterlimit="10"/>
<path d="M77.2434 40.0676L97.648 31.6836" stroke="#D5FF2F" stroke-width="2" stroke-miterlimit="10"/>
<path d="M61.9384 77.2383L70.3184 97.6476" stroke="#D5FF2F" stroke-width="2" stroke-miterlimit="10"/>
<path d="M97.6479 70.3164L61.9348 77.2385" stroke="#D5FF2F" stroke-width="2" stroke-miterlimit="10"/>
<path d="M77.2434 61.9321L70.3184 97.6476" stroke="#D5FF2F" stroke-width="2" stroke-miterlimit="10"/>
<path d="M40.4357 77.2383L70.3184 97.6476" stroke="#D5FF2F" stroke-width="2" stroke-miterlimit="10"/>
<path d="M61.9382 77.2383L31.6918 97.6476" stroke="#D5FF2F" stroke-width="2" stroke-miterlimit="10"/>
<path d="M40.0718 77.2383L31.6918 97.6476" stroke="#D5FF2F" stroke-width="2" stroke-miterlimit="10"/>
<path d="M4.35876 70.3164L40.4356 77.2385" stroke="#D5FF2F" stroke-width="2" stroke-miterlimit="10"/>
<path d="M24.7667 61.9321L4.35876 70.3162" stroke="#D5FF2F" stroke-width="2" stroke-miterlimit="10"/>
<path d="M24.7667 40.0679L4.35876 70.3164" stroke="#D5FF2F" stroke-width="2" stroke-miterlimit="10"/>
<path d="M24.7667 61.9321L32.0555 97.6476" stroke="#D5FF2F" stroke-width="2" stroke-miterlimit="10"/>
<path d="M4.35876 31.6836L24.7667 61.9321" stroke="#D5FF2F" stroke-width="2" stroke-miterlimit="10"/>
<path d="M66.6128 4.35226C66.6128 3.68925 66.8094 3.04112 67.1777 2.48985C67.546 1.93857 68.0696 1.5089 68.6821 1.25518C69.2946 1.00145 69.9685 0.935066 70.6188 1.06441C71.269 1.19376 71.8663 1.51303 72.3351 1.98186C72.8039 2.45068 73.1231 3.04799 73.2524 3.69827C73.3818 4.34854 73.3154 5.02257 73.0617 5.63512C72.808 6.24766 72.3784 6.77121 71.8271 7.13957C71.2759 7.50792 70.6278 7.70452 69.9648 7.70452C69.5245 7.70497 69.0884 7.61856 68.6815 7.45026C68.2746 7.28195 67.9049 7.03504 67.5936 6.72367C67.2822 6.41229 67.0353 6.04256 66.867 5.63565C66.6987 5.22873 66.6123 4.79261 66.6128 4.35226Z" fill="#361281"/>
<path d="M66.6128 4.35226C66.6128 3.68925 66.8094 3.04112 67.1777 2.48985C67.546 1.93857 68.0696 1.5089 68.6821 1.25518C69.2946 1.00145 69.9685 0.935066 70.6188 1.06441C71.269 1.19376 71.8663 1.51303 72.3351 1.98186C72.8039 2.45068 73.1231 3.04799 73.2524 3.69827C73.3818 4.34854 73.3154 5.02257 73.0617 5.63512C72.808 6.24766 72.3784 6.77121 71.8271 7.13957C71.2759 7.50792 70.6278 7.70452 69.9648 7.70452C69.5245 7.70497 69.0884 7.61856 68.6815 7.45026C68.2746 7.28195 67.9049 7.03504 67.5936 6.72367C67.2822 6.41229 67.0353 6.04256 66.867 5.63565C66.6987 5.22873 66.6123 4.79261 66.6128 4.35226Z" fill="#361281" stroke="#D5FF2F" stroke-width="2" stroke-miterlimit="10"/>
<path d="M58.5829 24.7614C58.5822 24.0976 58.7784 23.4485 59.1467 22.8962C59.515 22.3439 60.0388 21.9133 60.6519 21.6588C61.265 21.4043 61.9397 21.3373 62.5909 21.4664C63.242 21.5955 63.8402 21.9148 64.3098 22.384C64.7794 22.8532 65.0993 23.4511 65.229 24.1021C65.3588 24.7531 65.2925 25.428 65.0387 26.0414C64.7848 26.6547 64.3547 27.179 63.8028 27.5479C63.251 27.9168 62.6021 28.1137 61.9383 28.1137C61.4978 28.1141 61.0616 28.0277 60.6545 27.8595C60.2474 27.6912 59.8775 27.4444 59.5659 27.133C59.2543 26.8217 59.007 26.452 58.8384 26.0451C58.6697 25.6381 58.5829 25.2019 58.5829 24.7614Z" fill="#361281"/>
<path d="M58.5829 24.7614C58.5822 24.0976 58.7784 23.4485 59.1467 22.8962C59.515 22.3439 60.0388 21.9133 60.6519 21.6588C61.265 21.4043 61.9397 21.3373 62.5909 21.4664C63.242 21.5955 63.8402 21.9148 64.3098 22.384C64.7794 22.8532 65.0993 23.4511 65.229 24.1021C65.3588 24.7531 65.2925 25.428 65.0387 26.0414C64.7848 26.6547 64.3547 27.179 63.8028 27.5479C63.251 27.9168 62.6021 28.1137 61.9383 28.1137C61.4978 28.1141 61.0616 28.0277 60.6545 27.8595C60.2474 27.6912 59.8775 27.4444 59.5659 27.133C59.2543 26.8217 59.007 26.452 58.8384 26.0451C58.6697 25.6381 58.5829 25.2019 58.5829 24.7614Z" fill="#361281" stroke="#D5FF2F" stroke-width="2" stroke-miterlimit="10"/>
<path d="M73.8879 40.4313C73.8873 39.7675 74.0835 39.1184 74.4518 38.5661C74.8201 38.0138 75.3439 37.5832 75.9569 37.3287C76.57 37.0742 77.2448 37.0072 77.8959 37.1363C78.547 37.2654 79.1452 37.5848 79.6148 38.0539C80.0844 38.5231 80.4043 39.121 80.5341 39.772C80.6638 40.423 80.5976 41.0979 80.3437 41.7113C80.0898 42.3247 79.6598 42.8489 79.1079 43.2178C78.556 43.5867 77.9072 43.7836 77.2434 43.7836C76.8029 43.784 76.3666 43.6977 75.9595 43.5294C75.5525 43.3611 75.1825 43.1143 74.8709 42.8029C74.5593 42.4916 74.3121 42.1219 74.1434 41.715C73.9747 41.308 73.8879 40.8718 73.8879 40.4313Z" fill="#361281"/>
<path d="M73.8879 40.4313C73.8873 39.7675 74.0835 39.1184 74.4518 38.5661C74.8201 38.0138 75.3439 37.5832 75.9569 37.3287C76.57 37.0742 77.2448 37.0072 77.8959 37.1363C78.547 37.2654 79.1452 37.5848 79.6148 38.0539C80.0844 38.5231 80.4043 39.121 80.5341 39.772C80.6638 40.423 80.5976 41.0979 80.3437 41.7113C80.0898 42.3247 79.6598 42.8489 79.1079 43.2178C78.556 43.5867 77.9072 43.7836 77.2434 43.7836C76.8029 43.784 76.3666 43.6977 75.9595 43.5294C75.5525 43.3611 75.1825 43.1143 74.8709 42.8029C74.5593 42.4916 74.3121 42.1219 74.1434 41.715C73.9747 41.308 73.8879 40.8718 73.8879 40.4313Z" fill="#361281" stroke="#D5FF2F" stroke-width="2" stroke-miterlimit="10"/>
<path d="M73.8879 62.2961C73.8879 61.6324 74.0847 60.9836 74.4534 60.4318C74.8221 59.88 75.3462 59.4498 75.9593 59.1959C76.5724 58.9419 77.2471 58.8754 77.898 59.0049C78.5489 59.1344 79.1467 59.454 79.616 59.9233C80.0853 60.3926 80.4049 60.9905 80.5343 61.6414C80.6638 62.2924 80.5973 62.9671 80.3434 63.5802C80.0894 64.1934 79.6593 64.7175 79.1075 65.0862C78.5557 65.4549 77.907 65.6518 77.2434 65.6518C76.3535 65.6518 75.5 65.2982 74.8707 64.6689C74.2414 64.0396 73.8879 63.1861 73.8879 62.2961Z" fill="#361281"/>
<path d="M73.8879 62.2961C73.8879 61.6324 74.0847 60.9836 74.4534 60.4318C74.8221 59.88 75.3462 59.4498 75.9593 59.1959C76.5724 58.9419 77.2471 58.8754 77.898 59.0049C78.5489 59.1344 79.1467 59.454 79.616 59.9233C80.0853 60.3926 80.4049 60.9905 80.5343 61.6414C80.6638 62.2924 80.5973 62.9671 80.3434 63.5802C80.0894 64.1934 79.6593 64.7175 79.1075 65.0862C78.5557 65.4549 77.907 65.6518 77.2434 65.6518C76.3535 65.6518 75.5 65.2982 74.8707 64.6689C74.2414 64.0396 73.8879 63.1861 73.8879 62.2961Z" fill="#361281" stroke="#D5FF2F" stroke-width="2" stroke-miterlimit="10"/>
<path d="M21.4147 40.4314C21.4147 39.7684 21.6113 39.1202 21.9796 38.5689C22.3479 38.0177 22.8714 37.588 23.4839 37.3343C24.0964 37.0806 24.7704 37.0142 25.4207 37.1435C26.0709 37.2729 26.6682 37.5921 27.137 38.061C27.6057 38.5298 27.925 39.1271 28.0543 39.7774C28.1837 40.4276 28.1173 41.1017 27.8636 41.7142C27.6099 42.3268 27.1802 42.8503 26.629 43.2187C26.0778 43.587 25.4297 43.7836 24.7667 43.7836C24.3264 43.7841 23.8903 43.6977 23.4834 43.5294C23.0765 43.3611 22.7068 43.1141 22.3955 42.8028C22.0841 42.4914 21.8372 42.1217 21.6689 41.7148C21.5006 41.3078 21.4142 40.8717 21.4147 40.4314Z" fill="#361281"/>
<path d="M21.4147 40.4314C21.4147 39.7684 21.6113 39.1202 21.9796 38.5689C22.3479 38.0177 22.8714 37.588 23.4839 37.3343C24.0964 37.0806 24.7704 37.0142 25.4207 37.1435C26.0709 37.2729 26.6682 37.5921 27.137 38.061C27.6057 38.5298 27.925 39.1271 28.0543 39.7774C28.1837 40.4276 28.1173 41.1017 27.8636 41.7142C27.6099 42.3268 27.1802 42.8503 26.629 43.2187C26.0778 43.587 25.4297 43.7836 24.7667 43.7836C24.3264 43.7841 23.8903 43.6977 23.4834 43.5294C23.0765 43.3611 22.7068 43.1141 22.3955 42.8028C22.0841 42.4914 21.8372 42.1217 21.6689 41.7148C21.5006 41.3078 21.4142 40.8717 21.4147 40.4314Z" fill="#361281" stroke="#D5FF2F" stroke-width="2" stroke-miterlimit="10"/>
<path d="M21.4147 62.2961C21.4153 61.6333 21.6125 60.9855 21.9812 60.4346C22.35 59.8838 22.8737 59.4547 23.4863 59.2015C24.0989 58.9483 24.7727 58.8824 25.4227 59.0121C26.0728 59.1418 26.6697 59.4614 27.1382 59.9303C27.6066 60.3993 27.9255 60.9966 28.0546 61.6468C28.1836 62.297 28.1171 62.9708 27.8633 63.5832C27.6095 64.1955 27.1798 64.7189 26.6287 65.0871C26.0775 65.4553 25.4295 65.6518 24.7667 65.6518C24.3262 65.6518 23.8901 65.565 23.4832 65.3963C23.0763 65.2276 22.7066 64.9804 22.3953 64.6687C22.084 64.3571 21.8371 63.9871 21.6689 63.58C21.5006 63.1729 21.4142 62.7366 21.4147 62.2961Z" fill="#361281"/>
<path d="M21.4147 62.2961C21.4153 61.6333 21.6125 60.9855 21.9812 60.4346C22.35 59.8838 22.8737 59.4547 23.4863 59.2015C24.0989 58.9483 24.7727 58.8824 25.4227 59.0121C26.0728 59.1418 26.6697 59.4614 27.1382 59.9303C27.6066 60.3993 27.9255 60.9966 28.0546 61.6468C28.1836 62.297 28.1171 62.9708 27.8633 63.5832C27.6095 64.1955 27.1798 64.7189 26.6287 65.0871C26.0775 65.4553 25.4295 65.6518 24.7667 65.6518C24.3262 65.6518 23.8901 65.565 23.4832 65.3963C23.0763 65.2276 22.7066 64.9804 22.3953 64.6687C22.084 64.3571 21.8371 63.9871 21.6689 63.58C21.5006 63.1729 21.4142 62.7366 21.4147 62.2961Z" fill="#361281" stroke="#D5FF2F" stroke-width="2" stroke-miterlimit="10"/>
<path d="M37.0836 24.7614C37.0836 24.0984 37.2802 23.4503 37.6485 22.899C38.0169 22.3478 38.5404 21.9181 39.1529 21.6644C39.7654 21.4106 40.4394 21.3442 41.0896 21.4736C41.7398 21.6029 42.3371 21.9222 42.8059 22.391C43.2747 22.8599 43.5939 23.4572 43.7233 24.1074C43.8526 24.7577 43.7862 25.4318 43.5325 26.0443C43.2788 26.6568 42.8492 27.1804 42.2979 27.5487C41.7467 27.9171 41.0986 28.1137 40.4356 28.1137C39.5466 28.1137 38.694 27.7605 38.0654 27.1319C37.4368 26.5032 37.0836 25.6505 37.0836 24.7614Z" fill="#361281"/>
<path d="M37.0836 24.7614C37.0836 24.0984 37.2802 23.4503 37.6485 22.899C38.0169 22.3478 38.5404 21.9181 39.1529 21.6644C39.7654 21.4106 40.4394 21.3442 41.0896 21.4736C41.7398 21.6029 42.3371 21.9222 42.8059 22.391C43.2747 22.8599 43.5939 23.4572 43.7233 24.1074C43.8526 24.7577 43.7862 25.4318 43.5325 26.0443C43.2788 26.6568 42.8492 27.1804 42.2979 27.5487C41.7467 27.9171 41.0986 28.1137 40.4356 28.1137C39.5466 28.1137 38.694 27.7605 38.0654 27.1319C37.4368 26.5032 37.0836 25.6505 37.0836 24.7614Z" fill="#361281" stroke="#D5FF2F" stroke-width="2" stroke-miterlimit="10"/>
<path d="M58.5829 77.2385C58.5822 76.5746 58.7784 75.9255 59.1467 75.3732C59.515 74.8209 60.0388 74.3903 60.6519 74.1358C61.265 73.8813 61.9397 73.8144 62.5909 73.9435C63.242 74.0726 63.8402 74.3919 64.3098 74.861C64.7794 75.3302 65.0993 75.9281 65.229 76.5792C65.3588 77.2302 65.2925 77.9051 65.0387 78.5184C64.7848 79.1318 64.3547 79.6561 63.8028 80.025C63.251 80.3938 62.6021 80.5907 61.9383 80.5907C61.049 80.5907 60.196 80.2376 59.5669 79.6091C58.9377 78.9805 58.5838 78.1278 58.5829 77.2385Z" fill="#361281"/>
<path d="M58.5829 77.2385C58.5822 76.5746 58.7784 75.9255 59.1467 75.3732C59.515 74.8209 60.0388 74.3903 60.6519 74.1358C61.265 73.8813 61.9397 73.8144 62.5909 73.9435C63.242 74.0726 63.8402 74.3919 64.3098 74.861C64.7794 75.3302 65.0993 75.9281 65.229 76.5792C65.3588 77.2302 65.2925 77.9051 65.0387 78.5184C64.7848 79.1318 64.3547 79.6561 63.8028 80.025C63.251 80.3938 62.6021 80.5907 61.9383 80.5907C61.049 80.5907 60.196 80.2376 59.5669 79.6091C58.9377 78.9805 58.5838 78.1278 58.5829 77.2385Z" fill="#361281" stroke="#D5FF2F" stroke-width="2" stroke-miterlimit="10"/>
<path d="M37.0836 77.2385C37.0836 76.5755 37.2802 75.9274 37.6485 75.3761C38.0169 74.8248 38.5404 74.3951 39.1529 74.1414C39.7654 73.8877 40.4394 73.8213 41.0896 73.9506C41.7398 74.08 42.3371 74.3993 42.8059 74.8681C43.2747 75.3369 43.5939 75.9342 43.7233 76.5845C43.8526 77.2348 43.7862 77.9088 43.5325 78.5213C43.2788 79.1339 42.8492 79.6574 42.2979 80.0258C41.7467 80.3941 41.0986 80.5908 40.4356 80.5908C39.5469 80.5899 38.6948 80.2364 38.0664 79.6079C37.438 78.9794 37.0845 78.1273 37.0836 77.2385Z" fill="#361281"/>
<path d="M37.0836 77.2385C37.0836 76.5755 37.2802 75.9274 37.6485 75.3761C38.0169 74.8248 38.5404 74.3951 39.1529 74.1414C39.7654 73.8877 40.4394 73.8213 41.0896 73.9506C41.7398 74.08 42.3371 74.3993 42.8059 74.8681C43.2747 75.3369 43.5939 75.9342 43.7233 76.5845C43.8526 77.2348 43.7862 77.9088 43.5325 78.5213C43.2788 79.1339 42.8492 79.6574 42.2979 80.0258C41.7467 80.3941 41.0986 80.5908 40.4356 80.5908C39.5469 80.5899 38.6948 80.2364 38.0664 79.6079C37.438 78.9794 37.0845 78.1273 37.0836 77.2385Z" fill="#361281" stroke="#D5FF2F" stroke-width="2" stroke-miterlimit="10"/>
<path d="M28.7035 4.35226C28.7035 3.68925 28.9001 3.04112 29.2684 2.48985C29.6367 1.93857 30.1603 1.5089 30.7728 1.25518C31.3853 1.00145 32.0593 0.935066 32.7095 1.06441C33.3597 1.19376 33.957 1.51303 34.4258 1.98186C34.8946 2.45068 35.2138 3.04799 35.3432 3.69827C35.4725 4.34854 35.4061 5.02257 35.1524 5.63512C34.8987 6.24766 34.4691 6.77121 33.9178 7.13957C33.3666 7.50792 32.7185 7.70452 32.0555 7.70452C31.6152 7.70497 31.1791 7.61856 30.7722 7.45026C30.3653 7.28195 29.9956 7.03504 29.6843 6.72367C29.3729 6.41229 29.126 6.04256 28.9577 5.63565C28.7894 5.22873 28.703 4.79261 28.7035 4.35226Z" fill="#361281"/>
<path d="M28.7035 4.35226C28.7035 3.68925 28.9001 3.04112 29.2684 2.48985C29.6367 1.93857 30.1603 1.5089 30.7728 1.25518C31.3853 1.00145 32.0593 0.935066 32.7095 1.06441C33.3597 1.19376 33.957 1.51303 34.4258 1.98186C34.8946 2.45068 35.2138 3.04799 35.3432 3.69827C35.4725 4.34854 35.4061 5.02257 35.1524 5.63512C34.8987 6.24766 34.4691 6.77121 33.9178 7.13957C33.3666 7.50792 32.7185 7.70452 32.0555 7.70452C31.6152 7.70497 31.1791 7.61856 30.7722 7.45026C30.3653 7.28195 29.9956 7.03504 29.6843 6.72367C29.3729 6.41229 29.126 6.04256 28.9577 5.63565C28.7894 5.22873 28.703 4.79261 28.7035 4.35226Z" fill="#361281" stroke="#D5FF2F" stroke-width="2" stroke-miterlimit="10"/>
<path d="M1 31.6838C1 31.02 1.19687 30.371 1.56572 29.8191C1.93457 29.2672 2.45882 28.8371 3.07215 28.5832C3.68547 28.3294 4.3603 28.2631 5.01129 28.3929C5.66227 28.5226 6.26015 28.8425 6.72928 29.3122C7.19841 29.7818 7.51772 30.3801 7.64681 31.0312C7.77589 31.6824 7.70896 32.3572 7.45448 32.9703C7.19999 33.5834 6.76938 34.1073 6.21713 34.4756C5.66489 34.8439 5.01581 35.0401 4.35203 35.0395C3.4627 35.0385 2.61011 34.6846 1.98158 34.0554C1.35305 33.4262 1 32.5732 1 31.6838Z" fill="#361281"/>
<path d="M1 31.6838C1 31.02 1.19687 30.371 1.56572 29.8191C1.93457 29.2672 2.45882 28.8371 3.07215 28.5832C3.68547 28.3294 4.3603 28.2631 5.01129 28.3929C5.66227 28.5226 6.26015 28.8425 6.72928 29.3122C7.19841 29.7818 7.51772 30.3801 7.64681 31.0312C7.77589 31.6824 7.70896 32.3572 7.45448 32.9703C7.19999 33.5834 6.76938 34.1073 6.21713 34.4756C5.66489 34.8439 5.01581 35.0401 4.35203 35.0395C3.4627 35.0385 2.61011 34.6846 1.98158 34.0554C1.35305 33.4262 1 32.5732 1 31.6838Z" fill="#361281" stroke="#D5FF2F" stroke-width="2" stroke-miterlimit="10"/>
<path d="M1 71.4079C0.999329 70.7439 1.19564 70.0947 1.56408 69.5423C1.93252 68.9899 2.45654 68.5593 3.0698 68.3049C3.68307 68.0505 4.35801 67.9838 5.00921 68.1131C5.66042 68.2425 6.2586 68.5622 6.72807 69.0317C7.19754 69.5012 7.5172 70.0994 7.64656 70.7507C7.77592 71.4019 7.70917 72.0769 7.45479 72.6902C7.2004 73.3035 6.7698 73.8276 6.21749 74.196C5.66517 74.5645 5.01596 74.7608 4.35203 74.7602C3.46301 74.7602 2.61042 74.407 1.98179 73.7783C1.35317 73.1496 1 72.297 1 71.4079Z" fill="#361281"/>
<path d="M1 71.4079C0.999329 70.7439 1.19564 70.0947 1.56408 69.5423C1.93252 68.9899 2.45654 68.5593 3.0698 68.3049C3.68307 68.0505 4.35801 67.9838 5.00921 68.1131C5.66042 68.2425 6.2586 68.5622 6.72807 69.0317C7.19754 69.5012 7.5172 70.0994 7.64656 70.7507C7.77592 71.4019 7.70917 72.0769 7.45479 72.6902C7.2004 73.3035 6.7698 73.8276 6.21749 74.196C5.66517 74.5645 5.01596 74.7608 4.35203 74.7602C3.46301 74.7602 2.61042 74.407 1.98179 73.7783C1.35317 73.1496 1 72.297 1 71.4079Z" fill="#361281" stroke="#D5FF2F" stroke-width="2" stroke-miterlimit="10"/>
<path d="M94.2959 31.6838C94.2966 31.021 94.4937 30.3732 94.8625 29.8223C95.2312 29.2715 95.755 28.8424 96.3675 28.5892C96.9801 28.336 97.654 28.2701 98.304 28.3998C98.954 28.5295 99.5509 28.8491 100.019 29.318C100.488 29.787 100.807 30.3843 100.936 31.0345C101.065 31.6847 100.998 32.3585 100.744 32.9709C100.491 33.5832 100.061 34.1066 99.5099 34.4748C98.9587 34.843 98.3107 35.0395 97.6479 35.0395C96.7586 35.0386 95.906 34.6846 95.2775 34.0554C94.649 33.4262 94.2959 32.5732 94.2959 31.6838Z" fill="#361281"/>
<path d="M94.2959 31.6838C94.2966 31.021 94.4937 30.3732 94.8625 29.8223C95.2312 29.2715 95.755 28.8424 96.3675 28.5892C96.9801 28.336 97.654 28.2701 98.304 28.3998C98.954 28.5295 99.5509 28.8491 100.019 29.318C100.488 29.787 100.807 30.3843 100.936 31.0345C101.065 31.6847 100.998 32.3585 100.744 32.9709C100.491 33.5832 100.061 34.1066 99.5099 34.4748C98.9587 34.843 98.3107 35.0395 97.6479 35.0395C96.7586 35.0386 95.906 34.6846 95.2775 34.0554C94.649 33.4262 94.2959 32.5732 94.2959 31.6838Z" fill="#361281" stroke="#D5FF2F" stroke-width="2" stroke-miterlimit="10"/>
<path d="M94.2959 71.4079C94.2959 70.7449 94.4925 70.0968 94.8608 69.5455C95.2292 68.9942 95.7527 68.5646 96.3652 68.3108C96.9777 68.0571 97.6516 67.9907 98.3019 68.1201C98.9521 68.2494 99.5494 68.5687 100.018 69.0375C100.487 69.5063 100.806 70.1037 100.936 70.7539C101.065 71.4042 100.999 72.0782 100.745 72.6908C100.491 73.3033 100.061 73.8269 99.5102 74.1952C98.959 74.5636 98.3109 74.7602 97.6479 74.7602C96.7589 74.7602 95.9063 74.407 95.2777 73.7783C94.6491 73.1497 94.2959 72.297 94.2959 71.4079Z" fill="#361281"/>
<path d="M94.2959 71.4079C94.2959 70.7449 94.4925 70.0968 94.8608 69.5455C95.2292 68.9942 95.7527 68.5646 96.3652 68.3108C96.9777 68.0571 97.6516 67.9907 98.3019 68.1201C98.9521 68.2494 99.5494 68.5687 100.018 69.0375C100.487 69.5063 100.806 70.1037 100.936 70.7539C101.065 71.4042 100.999 72.0782 100.745 72.6908C100.491 73.3033 100.061 73.8269 99.5102 74.1952C98.959 74.5636 98.3109 74.7602 97.6479 74.7602C96.7589 74.7602 95.9063 74.407 95.2777 73.7783C94.6491 73.1497 94.2959 72.297 94.2959 71.4079Z" fill="#361281" stroke="#D5FF2F" stroke-width="2" stroke-miterlimit="10"/>
<path d="M66.6128 97.6477C66.6128 96.9847 66.8094 96.3365 67.1777 95.7853C67.546 95.234 68.0696 94.8043 68.6821 94.5506C69.2946 94.2969 69.9685 94.2305 70.6188 94.3598C71.269 94.4892 71.8663 94.8084 72.3351 95.2773C72.8039 95.7461 73.1231 96.3434 73.2524 96.9937C73.3818 97.644 73.3154 98.318 73.0617 98.9305C72.808 99.5431 72.3784 100.067 71.8271 100.435C71.2759 100.803 70.6278 101 69.9648 101C69.5245 101 69.0884 100.914 68.6815 100.746C68.2746 100.577 67.9049 100.33 67.5936 100.019C67.2822 99.7077 67.0353 99.338 66.867 98.9311C66.6987 98.5241 66.6123 98.088 66.6128 97.6477Z" fill="#361281"/>
<path d="M66.6128 97.6477C66.6128 96.9847 66.8094 96.3365 67.1777 95.7853C67.546 95.234 68.0696 94.8043 68.6821 94.5506C69.2946 94.2969 69.9685 94.2305 70.6188 94.3598C71.269 94.4892 71.8663 94.8084 72.3351 95.2773C72.8039 95.7461 73.1231 96.3434 73.2524 96.9937C73.3818 97.644 73.3154 98.318 73.0617 98.9305C72.808 99.5431 72.3784 100.067 71.8271 100.435C71.2759 100.803 70.6278 101 69.9648 101C69.5245 101 69.0884 100.914 68.6815 100.746C68.2746 100.577 67.9049 100.33 67.5936 100.019C67.2822 99.7077 67.0353 99.338 66.867 98.9311C66.6987 98.5241 66.6123 98.088 66.6128 97.6477Z" fill="#361281" stroke="#D5FF2F" stroke-width="2" stroke-miterlimit="10"/>
<path d="M28.7035 97.6477C28.7035 96.9847 28.9001 96.3365 29.2684 95.7853C29.6367 95.234 30.1603 94.8043 30.7728 94.5506C31.3853 94.2969 32.0593 94.2305 32.7095 94.3598C33.3597 94.4892 33.957 94.8084 34.4258 95.2773C34.8946 95.7461 35.2138 96.3434 35.3432 96.9937C35.4725 97.644 35.4061 98.318 35.1524 98.9305C34.8987 99.5431 34.4691 100.067 33.9178 100.435C33.3666 100.803 32.7185 101 32.0555 101C31.6152 101 31.1791 100.914 30.7722 100.746C30.3653 100.577 29.9956 100.33 29.6843 100.019C29.3729 99.7077 29.126 99.338 28.9577 98.9311C28.7894 98.5241 28.703 98.088 28.7035 97.6477Z" fill="#361281"/>
<path d="M28.7035 97.6477C28.7035 96.9847 28.9001 96.3365 29.2684 95.7853C29.6367 95.234 30.1603 94.8043 30.7728 94.5506C31.3853 94.2969 32.0593 94.2305 32.7095 94.3598C33.3597 94.4892 33.957 94.8084 34.4258 95.2773C34.8946 95.7461 35.2138 96.3434 35.3432 96.9937C35.4725 97.644 35.4061 98.318 35.1524 98.9305C34.8987 99.5431 34.4691 100.067 33.9178 100.435C33.3666 100.803 32.7185 101 32.0555 101C31.6152 101 31.1791 100.914 30.7722 100.746C30.3653 100.577 29.9956 100.33 29.6843 100.019C29.3729 99.7077 29.126 99.338 28.9577 98.9311C28.7894 98.5241 28.703 98.088 28.7035 97.6477Z" fill="#361281" stroke="#D5FF2F" stroke-width="2" stroke-miterlimit="10"/>
</svg>
