<svg width="102" height="100" viewBox="0 0 102 100" fill="none" xmlns="http://www.w3.org/2000/svg">
<path d="M50.9979 4.43042L20.6366 15.4149L4.48206 43.2277L10.0907 74.8533L34.8433 95.4943H67.1524L91.905 74.8533L97.5169 43.2277L81.3624 15.4149L50.9979 4.43042Z" fill="#361281" stroke="#D5FF2F" stroke-width="2" stroke-miterlimit="10"/>
<path d="M50.9978 27.885L35.8056 33.3838L27.7201 47.3001L30.5277 63.126L42.9156 73.4564H59.0834L71.4679 63.126L74.2756 47.3001L66.1933 33.3838L50.9978 27.885Z" fill="#361281" stroke="#D5FF2F" stroke-width="2" stroke-miterlimit="10"/>
<path d="M50.9977 4.5061V28.2861" stroke="#D5FF2F" stroke-width="2" stroke-miterlimit="10"/>
<path d="M20.4811 15.5364L50.9978 28.2859" stroke="#D5FF2F" stroke-width="2" stroke-miterlimit="10"/>
<path d="M81.5143 15.5364L50.9977 28.2859" stroke="#D5FF2F" stroke-width="2" stroke-miterlimit="10"/>
<path d="M35.7395 33.4562L50.9979 4.5061" stroke="#D5FF2F" stroke-width="2" stroke-miterlimit="10"/>
<path d="M66.256 33.4562L50.9977 4.5061" stroke="#D5FF2F" stroke-width="2" stroke-miterlimit="10"/>
<path d="M81.5144 15.5364L66.2561 33.456" stroke="#D5FF2F" stroke-width="2" stroke-miterlimit="10"/>
<path d="M74.2324 47.2441L81.5143 15.5364" stroke="#D5FF2F" stroke-width="2" stroke-miterlimit="10"/>
<path d="M35.7394 33.4559L20.4811 15.533" stroke="#D5FF2F" stroke-width="2" stroke-miterlimit="10"/>
<path d="M27.7663 47.2441L20.4811 15.5364" stroke="#D5FF2F" stroke-width="2" stroke-miterlimit="10"/>
<path d="M4.53162 43.1062L27.7664 47.2443" stroke="#D5FF2F" stroke-width="2" stroke-miterlimit="10"/>
<path d="M30.5377 63.0964L10.0808 74.8171" stroke="#D5FF2F" stroke-width="2" stroke-miterlimit="10"/>
<path d="M27.7665 47.2439L10.0808 74.8168" stroke="#D5FF2F" stroke-width="2" stroke-miterlimit="10"/>
<path d="M4.53162 43.1062L30.5376 63.0965" stroke="#D5FF2F" stroke-width="2" stroke-miterlimit="10"/>
<path d="M43.0215 73.4368L34.7012 95.4944" stroke="#D5FF2F" stroke-width="2" stroke-miterlimit="10"/>
<path d="M67.2978 95.4944L43.0214 73.4368" stroke="#D5FF2F" stroke-width="2" stroke-miterlimit="10"/>
<path d="M30.5376 63.0964L34.7011 95.4944" stroke="#D5FF2F" stroke-width="2" stroke-miterlimit="10"/>
<path d="M10.0808 74.8172L43.0215 73.4368" stroke="#D5FF2F" stroke-width="2" stroke-miterlimit="10"/>
<path d="M58.9742 73.4368L91.9182 75.159" stroke="#D5FF2F" stroke-width="2" stroke-miterlimit="10"/>
<path d="M71.458 63.0964L67.2979 95.4944" stroke="#D5FF2F" stroke-width="2" stroke-miterlimit="10"/>
<path d="M58.9742 73.4368L67.2979 95.4944" stroke="#D5FF2F" stroke-width="2" stroke-miterlimit="10"/>
<path d="M34.7012 95.4944L58.9743 73.4368" stroke="#D5FF2F" stroke-width="2" stroke-miterlimit="10"/>
<path d="M74.2324 47.2443L97.4672 43.1062" stroke="#D5FF2F" stroke-width="2" stroke-miterlimit="10"/>
<path d="M91.9181 74.8168L74.2324 47.2439" stroke="#D5FF2F" stroke-width="2" stroke-miterlimit="10"/>
<path d="M71.458 63.0964L91.9182 74.8171" stroke="#D5FF2F" stroke-width="2" stroke-miterlimit="10"/>
<path d="M97.4672 43.1062L70.7634 63.4416" stroke="#D5FF2F" stroke-width="2" stroke-miterlimit="10"/>
<path d="M66.2561 33.4558L97.4673 43.1058" stroke="#D5FF2F" stroke-width="2" stroke-miterlimit="10"/>
<path d="M17.0154 15.8783C17.0154 15.1962 17.2189 14.5295 17.6002 13.9624C17.9816 13.3953 18.5235 12.9534 19.1576 12.6926C19.7917 12.4317 20.4894 12.3636 21.1624 12.4969C21.8354 12.6302 22.4535 12.9589 22.9385 13.4414C23.4235 13.924 23.7537 14.5386 23.8871 15.2076C24.0206 15.8767 23.9514 16.57 23.6884 17.2C23.4253 17.8299 22.9802 18.3682 22.4093 18.7466C21.8384 19.1251 21.1673 19.3268 20.4811 19.3261C20.0257 19.3261 19.5747 19.2369 19.1541 19.0636C18.7334 18.8903 18.3511 18.6363 18.0293 18.3161C17.7074 17.9959 17.4522 17.6157 17.2782 17.1975C17.1042 16.7792 17.0149 16.3309 17.0154 15.8783Z" fill="#361281"/>
<path d="M21.8074 19.0628C23.5774 18.3341 24.418 16.3173 23.6848 14.558C22.9516 12.7988 20.9224 11.9633 19.1523 12.692C17.3823 13.4207 16.5417 15.4376 17.2749 17.1969C18.0081 18.9561 20.0374 19.7915 21.8074 19.0628Z" fill="#361281" stroke="#D5FF2F" stroke-width="2" stroke-miterlimit="10"/>
<path d="M1.06264 43.7962C1.06265 43.1139 1.26636 42.4469 1.64798 41.8797C2.0296 41.3125 2.57196 40.8706 3.20642 40.6099C3.84088 40.3492 4.53889 40.2815 5.21208 40.4154C5.88527 40.5492 6.50337 40.8786 6.98812 41.3617C7.47287 41.8449 7.80247 42.4602 7.9352 43.1296C8.06793 43.7991 7.99784 44.4927 7.73376 45.1225C7.46968 45.7523 7.02348 46.2901 6.4517 46.6678C5.87993 47.0455 5.20826 47.246 4.52174 47.2441C3.6017 47.2441 2.71935 46.8808 2.06878 46.2342C1.41822 45.5876 1.05273 44.7107 1.05273 43.7962" fill="#361281"/>
<path d="M5.86002 46.9813C7.63007 46.2526 8.47061 44.2357 7.73743 42.4765C7.00426 40.7172 4.975 39.8818 3.20496 40.6105C1.43492 41.3392 0.594355 43.3561 1.32753 45.1153C2.06071 46.8746 4.08998 47.71 5.86002 46.9813Z" fill="#361281" stroke="#D5FF2F" stroke-width="2" stroke-miterlimit="10"/>
<path d="M6.95886 75.159C6.95886 74.477 7.16239 73.8102 7.54372 73.2432C7.92504 72.6761 8.46705 72.2342 9.10113 71.9733C9.7352 71.7125 10.4328 71.6444 11.1059 71.7777C11.7789 71.911 12.397 72.2397 12.882 72.7222C13.367 73.2047 13.6972 73.8194 13.8306 74.4884C13.9641 75.1574 13.8949 75.8508 13.6319 76.4807C13.3688 77.1107 12.9237 77.6489 12.3527 78.0274C11.7818 78.4059 11.1108 78.6075 10.4246 78.6069C9.96916 78.6069 9.51823 78.5177 9.09753 78.3444C8.67684 78.1711 8.29466 77.917 7.97279 77.5968C7.65093 77.2766 7.39572 76.8965 7.22174 76.4782C7.04777 76.0599 6.95843 75.6116 6.95886 75.159Z" fill="#361281"/>
<path d="M11.7528 78.346C13.5229 77.6173 14.3634 75.6005 13.6302 73.8412C12.8971 72.082 10.8678 71.2465 9.09776 71.9752C7.32772 72.7039 6.48718 74.7208 7.22035 76.4801C7.95353 78.2393 9.98279 79.0747 11.7528 78.346Z" fill="#361281" stroke="#D5FF2F" stroke-width="2" stroke-miterlimit="10"/>
<path d="M31.2322 95.5106C31.2322 94.8287 31.4356 94.1621 31.8168 93.5951C32.198 93.0281 32.7398 92.5862 33.3736 92.3252C34.0075 92.0642 34.705 91.996 35.378 92.129C36.0509 92.262 36.669 92.5904 37.1541 93.0726C37.6393 93.5548 37.9697 94.1691 38.1035 94.838C38.2374 95.5068 38.1687 96.2 37.9061 96.83C37.6436 97.46 37.1989 97.9985 36.6284 98.3774C36.058 98.7562 35.3873 98.9584 34.7012 98.9584C33.7811 98.9584 32.8988 98.5952 32.2482 97.9486C31.5976 97.302 31.2322 96.425 31.2322 95.5106Z" fill="#361281"/>
<path d="M36.0288 98.681C37.7989 97.9523 38.6394 95.9354 37.9062 94.1762C37.1731 92.4169 35.1438 91.5815 33.3738 92.3102C31.6037 93.0389 30.7632 95.0558 31.4964 96.815C32.2295 98.5743 34.2588 99.4097 36.0288 98.681Z" fill="#361281" stroke="#D5FF2F" stroke-width="2" stroke-miterlimit="10"/>
<path d="M63.8289 95.5106C63.8289 94.8287 64.0323 94.1621 64.4135 93.5951C64.7947 93.0281 65.3365 92.5862 65.9704 92.3252C66.6042 92.0642 67.3017 91.996 67.9746 92.129C68.6476 92.262 69.2657 92.5904 69.7508 93.0726C70.236 93.5548 70.5664 94.1691 70.7002 94.838C70.8341 95.5068 70.7654 96.2 70.5028 96.83C70.2403 97.46 69.7956 97.9985 69.2252 98.3774C68.6547 98.7562 67.984 98.9584 67.2979 98.9584C66.3778 98.9584 65.4955 98.5952 64.8449 97.9486C64.1944 97.302 63.8289 96.425 63.8289 95.5106Z" fill="#361281"/>
<path d="M68.6244 98.6805C70.3945 97.9518 71.235 95.9349 70.5018 94.1757C69.7686 92.4164 67.7394 91.581 65.9693 92.3097C64.1993 93.0384 63.3588 95.0553 64.0919 96.8146C64.8251 98.5738 66.8544 99.4092 68.6244 98.6805Z" fill="#361281" stroke="#D5FF2F" stroke-width="2" stroke-miterlimit="10"/>
<path d="M88.4493 75.159C88.4493 74.4771 88.6528 73.8105 89.034 73.2435C89.4151 72.6765 89.9569 72.2346 90.5908 71.9736C91.2247 71.7127 91.9222 71.6444 92.5951 71.7774C93.268 71.9105 93.8861 72.2388 94.3713 72.721C94.8564 73.2032 95.1869 73.8176 95.3207 74.4864C95.4546 75.1552 95.3858 75.8485 95.1233 76.4785C94.8607 77.1085 94.4161 77.647 93.8456 78.0258C93.2751 78.4047 92.6045 78.6069 91.9183 78.6069C90.9983 78.6069 90.1159 78.2436 89.4654 77.597C88.8148 76.9504 88.4493 76.0735 88.4493 75.159Z" fill="#361281"/>
<path d="M93.2438 78.3446C95.0138 77.6159 95.8544 75.599 95.1212 73.8397C94.388 72.0805 92.3588 71.2451 90.5887 71.9738C88.8187 72.7025 87.9781 74.7194 88.7113 76.4786C89.4445 78.2379 91.4738 79.0733 93.2438 78.3446Z" fill="#361281" stroke="#D5FF2F" stroke-width="2" stroke-miterlimit="10"/>
<path d="M93.9983 43.7962C93.9983 43.1143 94.2018 42.4477 94.5829 41.8807C94.9641 41.3137 95.5059 40.8718 96.1398 40.6108C96.7737 40.3499 97.4711 40.2816 98.1441 40.4146C98.817 40.5477 99.4351 40.8761 99.9203 41.3582C100.405 41.8404 100.736 42.4548 100.87 43.1236C101.004 43.7924 100.935 44.4857 100.672 45.1157C100.41 45.7457 99.9651 46.2842 99.3946 46.663C98.8241 47.0419 98.1534 47.2441 97.4673 47.2441C97.0117 47.2445 96.5603 47.1556 96.1393 46.9825C95.7182 46.8094 95.3356 46.5554 95.0134 46.2352C94.6912 45.9149 94.4357 45.5347 94.2615 45.1162C94.0873 44.6977 93.9979 44.2491 93.9983 43.7962Z" fill="#361281"/>
<path d="M98.795 46.9827C100.565 46.254 101.406 44.2372 100.672 42.4779C99.9392 40.7187 97.91 39.8832 96.1399 40.6119C94.3699 41.3407 93.5293 43.3575 94.2625 45.1168C94.9956 46.876 97.0249 47.7114 98.795 46.9827Z" fill="#361281" stroke="#D5FF2F" stroke-width="2" stroke-miterlimit="10"/>
<path d="M77.7015 15.8783C77.7015 15.1962 77.9051 14.5295 78.2864 13.9624C78.6677 13.3953 79.2097 12.9534 79.8438 12.6926C80.4778 12.4317 81.1755 12.3636 81.8485 12.4969C82.5215 12.6302 83.1396 12.9589 83.6247 13.4414C84.1097 13.924 84.4398 14.5386 84.5733 15.2076C84.7068 15.8767 84.6376 16.57 84.3745 17.2C84.1115 17.8299 83.6663 18.3682 83.0954 18.7466C82.5245 19.1251 81.8535 19.3268 81.1672 19.3261C80.7118 19.3261 80.2609 19.2369 79.8402 19.0636C79.4195 18.8903 79.0373 18.6363 78.7154 18.3161C78.3936 17.9959 78.1384 17.6157 77.9644 17.1975C77.7904 16.7792 77.7011 16.3309 77.7015 15.8783Z" fill="#361281"/>
<path d="M82.4939 19.0643C84.264 18.3356 85.1045 16.3187 84.3713 14.5595C83.6382 12.8002 81.6089 11.9648 79.8389 12.6935C78.0688 13.4222 77.2283 15.4391 77.9614 17.1983C78.6946 18.9576 80.7239 19.793 82.4939 19.0643Z" fill="#361281" stroke="#D5FF2F" stroke-width="2" stroke-miterlimit="10"/>
<path d="M47.5321 4.5057C47.5321 3.82365 47.7356 3.15691 48.117 2.58984C48.4983 2.02278 49.0403 1.58086 49.6743 1.32C50.3084 1.05914 51.0061 0.991051 51.6791 1.12435C52.3521 1.25766 52.9702 1.58636 53.4552 2.06888C53.9402 2.55139 54.2704 3.16605 54.4038 3.83508C54.5373 4.50411 54.4682 5.19746 54.2051 5.82742C53.942 6.45737 53.4969 6.99563 52.9259 7.37409C52.355 7.75255 51.684 7.9542 50.9978 7.95355C50.0783 7.95268 49.1968 7.58904 48.547 6.94254C47.8971 6.29604 47.5321 5.41956 47.5321 4.5057Z" fill="#361281"/>
<path d="M52.3257 7.69027C54.0957 6.96157 54.9363 4.94469 54.2031 3.18544C53.4699 1.4262 51.4407 0.59078 49.6706 1.31948C47.9006 2.04819 47.0601 4.06506 47.7932 5.82431C48.5264 7.58355 50.5557 8.41898 52.3257 7.69027Z" fill="#361281" stroke="#D5FF2F" stroke-width="2" stroke-miterlimit="10"/>
<path d="M32.2738 33.8011C32.2738 33.1191 32.4773 32.4523 32.8587 31.8852C33.24 31.3182 33.782 30.8763 34.416 30.6154C35.0501 30.3545 35.7478 30.2865 36.4208 30.4198C37.0938 30.5531 37.7119 30.8818 38.1969 31.3643C38.6819 31.8468 39.0121 32.4615 39.1456 33.1305C39.279 33.7995 39.2099 34.4929 38.9468 35.1228C38.6837 35.7528 38.2386 36.291 37.6677 36.6695C37.0968 37.048 36.4257 37.2496 35.7395 37.249C35.2841 37.249 34.8332 37.1598 34.4125 36.9865C33.9918 36.8131 33.6096 36.5591 33.2877 36.2389C32.9658 35.9187 32.7106 35.5386 32.5366 35.1203C32.3627 34.702 32.2734 34.2537 32.2738 33.8011Z" fill="#361281"/>
<path d="M37.0676 36.9862C38.8377 36.2575 39.6782 34.2406 38.9451 32.4813C38.2119 30.7221 36.1826 29.8867 34.4126 30.6154C32.6425 31.3441 31.802 33.361 32.5352 35.1202C33.2683 36.8795 35.2976 37.7149 37.0676 36.9862Z" fill="#361281" stroke="#D5FF2F" stroke-width="2" stroke-miterlimit="10"/>
<path d="M47.5321 28.286C47.5347 27.6045 47.7405 26.9391 48.1234 26.3738C48.5063 25.8084 49.0492 25.3685 49.6835 25.1097C50.3177 24.8509 51.015 24.7846 51.6872 24.9194C52.3593 25.0542 52.9762 25.3839 53.4599 25.867C53.9436 26.35 54.2724 26.9647 54.4048 27.6334C54.5372 28.302 54.4673 28.9947 54.2038 29.6239C53.9404 30.2531 53.4952 30.7906 52.9246 31.1684C52.354 31.5463 51.6835 31.7477 50.9978 31.747C50.5424 31.747 50.0915 31.6578 49.6708 31.4845C49.2501 31.3112 48.8679 31.0572 48.546 30.737C48.2241 30.4168 47.9689 30.0366 47.7949 29.6184C47.621 29.2001 47.5317 28.7518 47.5321 28.2992" fill="#361281"/>
<path d="M52.3247 31.4715C54.0948 30.7428 54.9353 28.7259 54.2021 26.9667C53.469 25.2075 51.4397 24.372 49.6697 25.1007C47.8996 25.8294 47.0591 27.8463 47.7923 29.6056C48.5254 31.3648 50.5547 32.2002 52.3247 31.4715Z" fill="#361281" stroke="#D5FF2F" stroke-width="2" stroke-miterlimit="10"/>
<path d="M63.1343 33.8011C63.1343 33.1192 63.3378 32.4526 63.7189 31.8856C64.1001 31.3186 64.6419 30.8767 65.2758 30.6157C65.9097 30.3548 66.6071 30.2865 67.2801 30.4195C67.953 30.5526 68.5711 30.8809 69.0563 31.3631C69.5414 31.8453 69.8718 32.4597 70.0056 33.1285C70.1395 33.7973 70.0708 34.4905 69.8082 35.1206C69.5457 35.7506 69.1011 36.289 68.5306 36.6679C67.9601 37.0468 67.2894 37.249 66.6033 37.249C65.6832 37.249 64.8009 36.8857 64.1503 36.2391C63.4998 35.5925 63.1343 34.7155 63.1343 33.8011Z" fill="#361281"/>
<path d="M67.9301 36.9876C69.7001 36.2589 70.5407 34.2421 69.8075 32.4828C69.0743 30.7236 67.0451 29.8881 65.275 30.6168C63.505 31.3455 62.6644 33.3624 63.3976 35.1217C64.1308 36.8809 66.16 37.7163 67.9301 36.9876Z" fill="#361281" stroke="#D5FF2F" stroke-width="2" stroke-miterlimit="10"/>
<path d="M70.7634 47.931C70.7634 47.2491 70.9669 46.5825 71.348 46.0155C71.7292 45.4485 72.271 45.0066 72.9049 44.7456C73.5388 44.4846 74.2363 44.4164 74.9092 44.5494C75.5821 44.6824 76.2002 45.0108 76.6854 45.493C77.1705 45.9752 77.5009 46.5895 77.6347 47.2584C77.7686 47.9272 77.6999 48.6204 77.4373 49.2504C77.1748 49.8805 76.7302 50.4189 76.1597 50.7978C75.5892 51.1766 74.9185 51.3789 74.2324 51.3789C73.3124 51.3789 72.43 51.0156 71.7795 50.369C71.1289 49.7224 70.7634 48.8454 70.7634 47.931Z" fill="#361281"/>
<path d="M75.5612 51.1175C77.3312 50.3888 78.1718 48.3719 77.4386 46.6127C76.7054 44.8534 74.6762 44.018 72.9061 44.7467C71.1361 45.4754 70.2955 47.4923 71.0287 49.2516C71.7619 51.0108 73.7911 51.8462 75.5612 51.1175Z" fill="#361281" stroke="#D5FF2F" stroke-width="2" stroke-miterlimit="10"/>
<path d="M67.2979 63.4413C67.2979 62.7592 67.5014 62.0925 67.8827 61.5254C68.2641 60.9583 68.806 60.5164 69.4401 60.2555C70.0742 59.9947 70.7718 59.9266 71.4448 60.0599C72.1179 60.1932 72.736 60.5219 73.221 61.0044C73.706 61.4869 74.0361 62.1016 74.1696 62.7706C74.3031 63.4397 74.234 64.133 73.9709 64.763C73.7078 65.3929 73.2626 65.9312 72.6917 66.3096C72.1208 66.6881 71.4498 66.8898 70.7636 66.8891C70.3082 66.8891 69.8572 66.7999 69.4365 66.6266C69.0158 66.4533 68.6336 66.1993 68.3118 65.8791C67.9899 65.5588 67.7347 65.1787 67.5607 64.7604C67.3868 64.3422 67.2974 63.8939 67.2979 63.4413Z" fill="#361281"/>
<path d="M72.0911 66.6287C73.8612 65.9 74.7017 63.8831 73.9685 62.1239C73.2354 60.3647 71.2061 59.5292 69.4361 60.2579C67.666 60.9866 66.8254 63.0035 67.5586 64.7628C68.2918 66.522 70.3211 67.3574 72.0911 66.6287Z" fill="#361281" stroke="#D5FF2F" stroke-width="2" stroke-miterlimit="10"/>
<path d="M56.1997 73.4369C56.1997 72.7549 56.4031 72.0883 56.7843 71.5213C57.1655 70.9543 57.7073 70.5124 58.3412 70.2515C58.975 69.9905 59.6726 69.9222 60.3455 70.0553C61.0184 70.1883 61.6365 70.5167 62.1216 70.9989C62.6068 71.4811 62.9372 72.0954 63.0711 72.7642C63.2049 73.433 63.1362 74.1263 62.8737 74.7563C62.6111 75.3863 62.1664 75.9248 61.596 76.3036C61.0255 76.6825 60.3548 76.8847 59.6687 76.8847C58.7487 76.8847 57.8663 76.5214 57.2157 75.8749C56.5652 75.2283 56.1997 74.3513 56.1997 73.4369Z" fill="#361281"/>
<path d="M60.9968 76.6219C62.7669 75.8932 63.6074 73.8763 62.8743 72.1171C62.1411 70.3578 60.1118 69.5224 58.3418 70.2511C56.5717 70.9798 55.7312 72.9967 56.4644 74.7559C57.1975 76.5152 59.2268 77.3506 60.9968 76.6219Z" fill="#361281" stroke="#D5FF2F" stroke-width="2" stroke-miterlimit="10"/>
<path d="M39.2085 73.4369C39.2085 72.7549 39.4119 72.0883 39.7931 71.5213C40.1743 70.9543 40.7161 70.5124 41.35 70.2515C41.9838 69.9905 42.6814 69.9222 43.3543 70.0553C44.0272 70.1883 44.6453 70.5167 45.1305 70.9989C45.6156 71.4811 45.946 72.0954 46.0799 72.7642C46.2137 73.433 46.145 74.1263 45.8825 74.7563C45.6199 75.3863 45.1752 75.9248 44.6048 76.3036C44.0343 76.6825 43.3636 76.8847 42.6775 76.8847C42.2218 76.8851 41.7705 76.7963 41.3495 76.6231C40.9284 76.45 40.5458 76.1961 40.2236 75.8758C39.9013 75.5556 39.6458 75.1753 39.4717 74.7568C39.2975 74.3383 39.2081 73.8898 39.2085 73.4369Z" fill="#361281"/>
<path d="M44.006 76.6224C45.776 75.8937 46.6166 73.8768 45.8834 72.1176C45.1502 70.3583 43.121 69.5229 41.3509 70.2516C39.5809 70.9803 38.7404 72.9972 39.4735 74.7564C40.2067 76.5157 42.236 77.3511 44.006 76.6224Z" fill="#361281" stroke="#D5FF2F" stroke-width="2" stroke-miterlimit="10"/>
<path d="M27.7665 63.4413C27.7665 62.7592 27.97 62.0925 28.3513 61.5254C28.7327 60.9583 29.2746 60.5164 29.9087 60.2555C30.5428 59.9947 31.2405 59.9266 31.9135 60.0599C32.5865 60.1932 33.2046 60.5219 33.6896 61.0044C34.1746 61.4869 34.5048 62.1016 34.6382 62.7706C34.7717 63.4397 34.7025 64.133 34.4395 64.763C34.1764 65.3929 33.7313 65.9312 33.1604 66.3096C32.5895 66.6881 31.9184 66.8898 31.2322 66.8891C30.7768 66.8891 30.3258 66.7999 29.9052 66.6266C29.4845 66.4533 29.1022 66.1993 28.7804 65.8791C28.4585 65.5588 28.2033 65.1787 28.0293 64.7604C27.8553 64.3422 27.766 63.8939 27.7665 63.4413Z" fill="#361281"/>
<path d="M32.5597 66.6273C34.3298 65.8986 35.1703 63.8817 34.4371 62.1225C33.7039 60.3632 31.6747 59.5278 29.9046 60.2565C28.1346 60.9852 27.2941 63.0021 28.0272 64.7613C28.7604 66.5206 30.7897 67.356 32.5597 66.6273Z" fill="#361281" stroke="#D5FF2F" stroke-width="2" stroke-miterlimit="10"/>
<path d="M24.2972 47.931C24.2972 47.2489 24.5008 46.5822 24.8821 46.0151C25.2634 45.4481 25.8054 45.0062 26.4395 44.7453C27.0735 44.4844 27.7712 44.4163 28.4442 44.5496C29.1172 44.6829 29.7353 45.0116 30.2204 45.4942C30.7054 45.9767 31.0355 46.5913 31.169 47.2604C31.3025 47.9294 31.2333 48.6228 30.9702 49.2527C30.7072 49.8827 30.262 50.4209 29.6911 50.7994C29.1202 51.1778 28.4492 51.3795 27.7629 51.3789C27.3075 51.3789 26.8566 51.2896 26.4359 51.1163C26.0152 50.943 25.633 50.689 25.3111 50.3688C24.9893 50.0486 24.7341 49.6685 24.5601 49.2502C24.3861 48.8319 24.2968 48.3836 24.2972 47.931Z" fill="#361281"/>
<path d="M29.0905 51.119C30.8605 50.3903 31.7011 48.3734 30.9679 46.6142C30.2347 44.8549 28.2055 44.0195 26.4354 44.7482C24.6654 45.4769 23.8248 47.4938 24.558 49.253C25.2912 51.0123 27.3204 51.8477 29.0905 51.119Z" fill="#361281" stroke="#D5FF2F" stroke-width="2" stroke-miterlimit="10"/>
</svg>
