<svg width="24" height="265" viewBox="0 0 24 265" fill="none" xmlns="http://www.w3.org/2000/svg">
<g clip-path="url(#clip0_1_999)">
<path fill-rule="evenodd" clip-rule="evenodd" d="M12 0C5.37 0 0 5.37 0 12C0 17.31 3.435 21.795 8.205 23.385C8.805 23.49 9.03 23.13 9.03 22.815C9.03 22.53 9.015 21.585 9.015 20.58C6 21.135 5.22 19.845 4.98 19.17C4.845 18.825 4.26 17.76 3.75 17.475C3.33 17.25 2.73 16.695 3.735 16.68C4.68 16.665 5.355 17.55 5.58 17.91C6.66 19.725 8.385 19.215 9.075 18.9C9.18 18.12 9.495 17.595 9.84 17.295C7.17 16.995 4.38 15.96 4.38 11.37C4.38 10.065 4.845 8.985 5.61 8.145C5.49 7.845 5.07 6.615 5.73 4.965C5.73 4.965 6.735 4.65 9.03 6.195C9.99 5.925 11.01 5.79 12.03 5.79C13.05 5.79 14.07 5.925 15.03 6.195C17.325 4.635 18.33 4.965 18.33 4.965C18.99 6.615 18.57 7.845 18.45 8.145C19.215 8.985 19.68 10.05 19.68 11.37C19.68 15.975 16.875 16.995 14.205 17.295C14.64 17.67 15.015 18.39 15.015 19.515C15.015 21.12 15 22.41 15 22.815C15 23.13 15.225 23.505 15.825 23.385C18.2072 22.5807 20.2772 21.0497 21.7437 19.0074C23.2101 16.965 23.9993 14.5143 24 12C24 5.37 18.63 0 12 0Z" fill="white"/>
</g>
<g clip-path="url(#clip1_1_999)">
<path d="M20.317 52.492C18.787 51.802 17.147 51.292 15.432 51.002C15.4167 50.999 15.4009 51.0009 15.3868 51.0074C15.3726 51.0138 15.3608 51.0245 15.353 51.038C15.143 51.407 14.909 51.888 14.745 52.268C12.9261 51.9962 11.0769 51.9962 9.25799 52.268C9.07533 51.8468 8.86934 51.4362 8.64099 51.038C8.63325 51.0244 8.62154 51.0134 8.60743 51.0066C8.59331 50.9998 8.57746 50.9975 8.56199 51C6.84799 51.29 5.20799 51.8 3.67699 52.491C3.66382 52.4965 3.65265 52.5059 3.64499 52.518C0.532992 57.093 -0.320008 61.555 0.0989923 65.961C0.100158 65.9718 0.103508 65.9822 0.108837 65.9917C0.114167 66.0011 0.121364 66.0094 0.129992 66.016C1.94638 67.3384 3.97233 68.3458 6.12299 68.996C6.13798 69.0006 6.15402 69.0006 6.16901 68.9959C6.18399 68.9913 6.19723 68.9823 6.20699 68.97C6.66979 68.351 7.07989 67.6944 7.43299 67.007C7.43789 66.9976 7.44072 66.9872 7.44127 66.9766C7.44183 66.9661 7.44011 66.9555 7.43622 66.9456C7.43233 66.9358 7.42637 66.9268 7.41874 66.9195C7.41111 66.9121 7.40199 66.9065 7.39199 66.903C6.746 66.6597 6.12008 66.3661 5.51999 66.025C5.50921 66.0188 5.50012 66.0101 5.49355 65.9995C5.48698 65.989 5.48312 65.977 5.48233 65.9646C5.48153 65.9522 5.48383 65.9398 5.48901 65.9286C5.49418 65.9173 5.50208 65.9075 5.51199 65.9C5.63799 65.807 5.76399 65.71 5.88399 65.613C5.89479 65.6043 5.9078 65.5987 5.92158 65.5969C5.93535 65.5952 5.94934 65.5973 5.96199 65.603C9.88899 67.367 14.142 67.367 18.023 65.603C18.0357 65.5969 18.0498 65.5946 18.0638 65.5961C18.0778 65.5977 18.091 65.6032 18.102 65.612C18.222 65.71 18.347 65.807 18.474 65.9C18.484 65.9073 18.492 65.917 18.4974 65.9282C18.5027 65.9394 18.5052 65.9517 18.5046 65.9641C18.504 65.9765 18.5004 65.9885 18.494 65.9991C18.4876 66.0098 18.4787 66.0186 18.468 66.025C17.87 66.369 17.248 66.66 16.595 66.902C16.585 66.9056 16.5758 66.9114 16.5682 66.9188C16.5606 66.9263 16.5546 66.9353 16.5507 66.9452C16.5468 66.9551 16.5451 66.9658 16.5457 66.9764C16.5463 66.9871 16.5491 66.9975 16.554 67.007C16.914 67.694 17.326 68.348 17.779 68.969C17.7884 68.9817 17.8015 68.9912 17.8166 68.9963C17.8316 69.0013 17.8478 69.0015 17.863 68.997C20.0173 68.3486 22.0466 67.3407 23.865 66.016C23.8739 66.0098 23.8813 66.0017 23.8868 65.9924C23.8923 65.9831 23.8958 65.9727 23.897 65.962C24.397 60.868 23.059 56.442 20.348 52.52C20.3413 52.5072 20.3303 52.4973 20.317 52.492ZM8.01999 63.278C6.83799 63.278 5.86299 62.209 5.86299 60.898C5.86299 59.586 6.81899 58.518 8.01999 58.518C9.22999 58.518 10.196 59.595 10.177 60.898C10.177 62.21 9.22099 63.278 8.01999 63.278ZM15.995 63.278C14.812 63.278 13.838 62.209 13.838 60.898C13.838 59.586 14.793 58.518 15.995 58.518C17.205 58.518 18.171 59.595 18.152 60.898C18.152 62.21 17.206 63.278 15.995 63.278Z" fill="white"/>
</g>
<path d="M2.57143 96C1.15179 96 0 97.1691 0 98.61V117.75C0 119.191 1.15179 120.36 2.57143 120.36H21.4286C22.8482 120.36 24 119.191 24 117.75V98.61C24 97.1691 22.8482 96 21.4286 96H2.57143ZM14.6822 99.48L19.2353 105.709L18.008 106.633L13.4551 100.404L14.6822 99.48ZM11.8517 101.972L17.7309 106.934L16.7607 108.12L10.8817 103.157L11.8517 101.972ZM9.59491 105.186L16.5235 108.481L15.8901 109.888L8.9617 106.613L9.59491 105.186ZM8.28857 108.703L15.7711 110.29L15.4543 111.817L7.97196 110.229L8.28857 108.702V108.703ZM4.76464 110.671H6.28929V115.333H16.9985V110.671H18.5226V116.88H4.76464V110.671V110.671ZM7.81334 112.219H15.4542V113.766H7.81339V112.219H7.81334Z" fill="white"/>
<g clip-path="url(#clip2_1_999)">
<path fill-rule="evenodd" clip-rule="evenodd" d="M24 156.36C24 162.987 18.627 168.36 12 168.36C5.373 168.36 0 162.987 0 156.36C0 149.733 5.373 144.36 12 144.36C18.627 144.36 24 149.733 24 156.36ZM19.688 155.418C19.882 155.695 19.992 156.022 20.004 156.36C20.0092 156.691 19.9207 157.016 19.7487 157.298C19.5767 157.581 19.3282 157.809 19.032 157.956C19.046 158.132 19.046 158.308 19.032 158.484C19.032 161.172 15.9 163.356 12.036 163.356C8.172 163.356 5.04 161.172 5.04 158.484C5.02649 158.308 5.02649 158.132 5.04 157.956C4.81117 157.849 4.60825 157.693 4.44519 157.5C4.28213 157.307 4.16279 157.081 4.09537 156.838C4.02796 156.594 4.01408 156.339 4.05467 156.09C4.09526 155.84 4.18937 155.603 4.33053 155.393C4.47169 155.184 4.65656 155.007 4.87241 154.876C5.08826 154.745 5.32999 154.662 5.58098 154.632C5.83197 154.603 6.08626 154.629 6.32638 154.708C6.5665 154.786 6.78676 154.916 6.972 155.088C8.35473 154.15 9.98146 153.637 11.652 153.612L12.54 149.448C12.55 149.4 12.5694 149.354 12.5972 149.313C12.625 149.273 12.6605 149.238 12.7018 149.211C12.7431 149.184 12.7894 149.166 12.8378 149.157C12.8862 149.148 12.9359 149.149 12.984 149.16L15.924 149.748C16.0676 149.501 16.2944 149.314 16.5637 149.219C16.833 149.125 17.1272 149.129 17.3934 149.232C17.6597 149.335 17.8806 149.529 18.0164 149.78C18.1523 150.031 18.1943 150.322 18.1348 150.602C18.0753 150.881 17.9182 151.13 17.6918 151.303C17.4654 151.477 17.1845 151.565 16.8995 151.55C16.6144 151.535 16.3439 151.419 16.1366 151.223C15.9292 151.027 15.7985 150.764 15.768 150.48L13.2 149.94L12.42 153.684C14.0702 153.719 15.6749 154.232 17.04 155.16C17.2222 154.985 17.4402 154.851 17.679 154.768C17.9178 154.685 18.1718 154.655 18.4234 154.679C18.675 154.704 18.9183 154.783 19.1366 154.91C19.3549 155.038 19.543 155.211 19.688 155.418ZM8.206 156.893C8.11841 157.024 8.05749 157.171 8.02672 157.326C7.99595 157.48 7.99593 157.639 8.02667 157.794C8.08874 158.106 8.27231 158.381 8.537 158.558C8.80169 158.735 9.1258 158.799 9.43805 158.737C9.59266 158.706 9.7397 158.646 9.87078 158.558C10.0019 158.47 10.1144 158.358 10.202 158.227C10.3789 157.962 10.4434 157.638 10.3813 157.326C10.3193 157.014 10.1357 156.739 9.871 156.562C9.60631 156.385 9.2822 156.32 8.96995 156.383C8.6577 156.445 8.3829 156.628 8.206 156.893ZM12.012 161.784C13.077 161.828 14.125 161.55 14.976 160.908C15.0397 160.846 15.076 160.761 15.0772 160.672C15.0783 160.583 15.0441 160.498 14.982 160.434C14.9513 160.402 14.9146 160.377 14.8742 160.36C14.8337 160.342 14.7903 160.333 14.7462 160.333C14.6574 160.332 14.5717 160.366 14.508 160.428C13.7797 160.95 12.895 161.209 12 161.16C11.1061 161.2 10.2255 160.933 9.504 160.404C9.44182 160.353 9.36289 160.327 9.28256 160.331C9.20222 160.335 9.12622 160.368 9.06935 160.425C9.01247 160.482 8.97879 160.558 8.97484 160.638C8.97089 160.719 8.99697 160.798 9.048 160.86C9.89937 161.501 10.9469 161.828 12.012 161.784ZM14.093 158.606C14.291 158.738 14.511 158.856 14.748 158.856C14.9108 158.858 15.0722 158.827 15.2225 158.764C15.3728 158.701 15.5087 158.609 15.6221 158.492C15.7355 158.376 15.824 158.237 15.8821 158.085C15.9401 157.933 15.9667 157.77 15.96 157.608C15.9599 157.401 15.9062 157.197 15.8039 157.017C15.7017 156.836 15.5545 156.685 15.3767 156.579C15.1989 156.472 14.9965 156.414 14.7893 156.409C14.5821 156.404 14.3771 156.452 14.1943 156.55C14.0115 156.648 13.8571 156.791 13.7462 156.966C13.6353 157.141 13.5717 157.342 13.5615 157.549C13.5513 157.756 13.5949 157.962 13.688 158.148C13.7812 158.333 13.9207 158.491 14.093 158.606Z" fill="white"/>
</g>
<g clip-path="url(#clip3_1_999)">
<path d="M13.095 211.074C12.264 209.437 11.289 207.784 9.3855 207.784C9.0225 207.784 8.6595 207.844 8.325 207.997L7.68 206.703C8.4675 206.028 9.7395 205.491 11.376 205.491C13.9215 205.491 15.228 206.718 16.266 208.281C16.881 206.946 17.1735 205.141 17.1735 202.905C17.1735 197.319 15.426 194.451 11.346 194.451C7.326 194.451 5.5875 197.319 5.5875 202.905C5.5875 208.461 7.326 211.299 11.3475 211.299C11.985 211.299 12.564 211.23 13.0965 211.074H13.095ZM14.0925 213.024C13.1972 213.264 12.2745 213.387 11.3475 213.39C5.991 213.39 0.75 209.118 0.75 202.905C0.75 196.633 5.9925 192.36 11.346 192.36C16.791 192.36 21.981 196.602 21.981 202.905C21.981 206.41 20.346 209.259 17.9685 211.101C18.7365 212.251 19.5285 213.016 20.628 213.016C21.831 213.016 22.3155 212.086 22.3965 211.359H23.961C24.0525 212.329 23.568 216.36 19.194 216.36C16.5435 216.36 15.144 214.824 14.094 213.024H14.0925Z" fill="white"/>
</g>
<g clip-path="url(#clip4_1_999)">
<path d="M23.4999 246.866C23.364 246.382 23.0993 245.943 22.7339 245.596C22.3582 245.239 21.8977 244.984 21.3959 244.854C19.5179 244.359 11.9939 244.359 11.9939 244.359C8.85721 244.324 5.72131 244.481 2.60388 244.829C2.10208 244.969 1.64245 245.23 1.26588 245.589C0.895885 245.945 0.627885 246.384 0.487885 246.865C0.151578 248.677 -0.0118232 250.517 -0.000115239 252.359C-0.0121152 254.2 0.150885 256.039 0.487885 257.853C0.624885 258.332 0.891885 258.769 1.26288 259.122C1.63388 259.475 2.09588 259.73 2.60388 259.865C4.50689 260.359 11.9939 260.359 11.9939 260.359C15.1345 260.395 18.2744 260.238 21.3959 259.889C21.8977 259.76 22.3582 259.504 22.7339 259.147C23.0991 258.801 23.3636 258.362 23.4989 257.877C23.844 256.066 24.0118 254.226 23.9999 252.382C24.0258 250.531 23.8583 248.682 23.4999 246.865V246.866ZM9.60188 255.783V248.936L15.8619 252.36L9.60188 255.783Z" fill="white"/>
</g>
<defs>
<clipPath id="clip0_1_999">
<rect width="24" height="24" fill="white"/>
</clipPath>
<clipPath id="clip1_1_999">
<rect width="24" height="24" fill="white" transform="translate(0 48)"/>
</clipPath>
<clipPath id="clip2_1_999">
<rect width="24" height="24" fill="white" transform="translate(0 144.36)"/>
</clipPath>
<clipPath id="clip3_1_999">
<rect width="24" height="24" fill="white" transform="translate(0 192.36)"/>
</clipPath>
<clipPath id="clip4_1_999">
<rect width="24" height="24" fill="white" transform="translate(0 240.36)"/>
</clipPath>
</defs>
</svg>
