<svg width="58" height="99" viewBox="0 0 58 99" fill="none" xmlns="http://www.w3.org/2000/svg">
<g clip-path="url(#clip0_1_771)">
<path fill-rule="evenodd" clip-rule="evenodd" d="M9 0C4.0275 0 0 4.0275 0 9C0 12.9825 2.57625 16.3463 6.15375 17.5388C6.60375 17.6175 6.7725 17.3475 6.7725 17.1113C6.7725 16.8975 6.76125 16.1888 6.76125 15.435C4.5 15.8513 3.915 14.8838 3.735 14.3775C3.63375 14.1188 3.195 13.32 2.8125 13.1063C2.4975 12.9375 2.0475 12.5213 2.80125 12.51C3.51 12.4988 4.01625 13.1625 4.185 13.4325C4.995 14.7938 6.28875 14.4113 6.80625 14.175C6.885 13.59 7.12125 13.1963 7.38 12.9713C5.3775 12.7463 3.285 11.97 3.285 8.5275C3.285 7.54875 3.63375 6.73875 4.2075 6.10875C4.1175 5.88375 3.8025 4.96125 4.2975 3.72375C4.2975 3.72375 5.05125 3.4875 6.7725 4.64625C7.4925 4.44375 8.2575 4.3425 9.0225 4.3425C9.7875 4.3425 10.5525 4.44375 11.2725 4.64625C12.9937 3.47625 13.7475 3.72375 13.7475 3.72375C14.2425 4.96125 13.9275 5.88375 13.8375 6.10875C14.4113 6.73875 14.76 7.5375 14.76 8.5275C14.76 11.9813 12.6562 12.7463 10.6537 12.9713C10.98 13.2525 11.2613 13.7925 11.2613 14.6363C11.2613 15.84 11.25 16.8075 11.25 17.1113C11.25 17.3475 11.4187 17.6288 11.8687 17.5388C13.6554 16.9355 15.2079 15.7873 16.3077 14.2555C17.4076 12.7238 17.9995 10.8857 18 9C18 4.0275 13.9725 0 9 0Z" fill="white"/>
</g>
<g clip-path="url(#clip1_1_771)">
<path d="M55.2377 3.36874C54.0902 2.85124 52.8602 2.46874 51.574 2.25124C51.5625 2.24904 51.5507 2.25045 51.5401 2.25529C51.5295 2.26013 51.5206 2.26815 51.5147 2.27824C51.3572 2.55499 51.1817 2.91574 51.0587 3.20074C49.6946 2.99691 48.3077 2.99691 46.9435 3.20074C46.8065 2.88488 46.652 2.5769 46.4807 2.27824C46.4749 2.26802 46.4662 2.25982 46.4556 2.25473C46.445 2.24964 46.4331 2.2479 46.4215 2.24974C45.136 2.46724 43.906 2.84974 42.7577 3.36799C42.7479 3.37213 42.7395 3.3792 42.7337 3.38824C40.3997 6.81949 39.76 10.166 40.0742 13.4705C40.0751 13.4786 40.0776 13.4864 40.0816 13.4935C40.0856 13.5006 40.091 13.5068 40.0975 13.5117C41.4598 14.5036 42.9792 15.2591 44.5922 15.7467C44.6035 15.7502 44.6155 15.7502 44.6268 15.7467C44.638 15.7432 44.6479 15.7364 44.6552 15.7272C45.0023 15.263 45.3099 14.7706 45.5747 14.255C45.5784 14.2479 45.5805 14.2402 45.581 14.2322C45.5814 14.2243 45.5801 14.2164 45.5772 14.209C45.5742 14.2016 45.5698 14.1949 45.5641 14.1894C45.5583 14.1839 45.5515 14.1796 45.544 14.177C45.0595 13.9945 44.5901 13.7744 44.14 13.5185C44.1319 13.5139 44.1251 13.5073 44.1202 13.4994C44.1152 13.4915 44.1123 13.4825 44.1117 13.4732C44.1111 13.4639 44.1129 13.4546 44.1168 13.4462C44.1206 13.4377 44.1266 13.4303 44.134 13.4247C44.2285 13.355 44.323 13.2822 44.413 13.2095C44.4211 13.2029 44.4309 13.1988 44.4412 13.1975C44.4515 13.1961 44.462 13.1977 44.4715 13.202C47.4167 14.525 50.6065 14.525 53.5172 13.202C53.5268 13.1974 53.5374 13.1957 53.5478 13.1969C53.5583 13.1981 53.5682 13.2022 53.5765 13.2087C53.6665 13.2822 53.7602 13.355 53.8555 13.4247C53.863 13.4302 53.869 13.4375 53.873 13.4459C53.877 13.4543 53.8789 13.4635 53.8785 13.4728C53.878 13.4821 53.8753 13.4911 53.8705 13.4991C53.8657 13.5071 53.859 13.5137 53.851 13.5185C53.4025 13.7765 52.936 13.9947 52.4462 14.1762C52.4387 14.179 52.4319 14.1833 52.4261 14.1889C52.4204 14.1944 52.416 14.2012 52.413 14.2087C52.4101 14.2161 52.4088 14.2241 52.4093 14.2321C52.4097 14.2401 52.4118 14.2479 52.4155 14.255C52.6855 14.7702 52.9945 15.2607 53.3342 15.7265C53.3413 15.736 53.3511 15.7432 53.3624 15.7469C53.3737 15.7507 53.3859 15.7509 53.3972 15.7475C55.013 15.2612 56.5349 14.5053 57.8987 13.5117C57.9054 13.5071 57.911 13.5011 57.9151 13.4941C57.9193 13.4871 57.9219 13.4793 57.9227 13.4712C58.2977 9.65074 57.2942 6.33124 55.261 3.38974C55.256 3.38018 55.2478 3.37273 55.2377 3.36874ZM46.015 11.4582C45.1285 11.4582 44.3972 10.6565 44.3972 9.67324C44.3972 8.68924 45.1142 7.88824 46.015 7.88824C46.9225 7.88824 47.647 8.69599 47.6327 9.67324C47.6327 10.6572 46.9157 11.4582 46.015 11.4582ZM51.9962 11.4582C51.109 11.4582 50.3785 10.6565 50.3785 9.67324C50.3785 8.68924 51.0947 7.88824 51.9962 7.88824C52.9037 7.88824 53.6282 8.69599 53.614 9.67324C53.614 10.6572 52.9045 11.4582 51.9962 11.4582Z" fill="white"/>
</g>
<path d="M1.92857 40C0.863839 40 0 40.8638 0 41.9286V56.0714C0 57.1362 0.863839 58 1.92857 58H16.0714C17.1362 58 18 57.1362 18 56.0714V41.9286C18 40.8638 17.1362 40 16.0714 40H1.92857ZM11.0117 42.5714L14.4264 47.1739L13.506 47.8568L10.0913 43.2543L11.0117 42.5714ZM8.88879 44.4125L13.2982 48.0795L12.5705 48.9555L8.16127 45.2882L8.88879 44.4125ZM7.19618 46.7879L12.3926 49.2225L11.9176 50.2618L6.72127 47.842L7.19618 46.7879ZM6.21643 49.3861L11.8283 50.5588L11.5908 51.6874L5.97897 50.5143L6.21643 49.386V49.3861ZM3.57348 50.841H4.71696V54.2856H12.7489V50.8409H13.8919V55.4286H3.57348V50.8409V50.841ZM5.86 51.9843H11.5907V53.1274H5.86004V51.9843H5.86Z" fill="white"/>
<g clip-path="url(#clip2_1_771)">
<path fill-rule="evenodd" clip-rule="evenodd" d="M58 49C58 53.9703 53.9702 58 49 58C44.0297 58 40 53.9703 40 49C40 44.0297 44.0297 40 49 40C53.9702 40 58 44.0297 58 49ZM54.766 48.2935C54.9115 48.5012 54.994 48.7465 55.003 49C55.0069 49.248 54.9405 49.492 54.8115 49.7039C54.6825 49.9157 54.4961 50.0867 54.274 50.197C54.2845 50.329 54.2845 50.461 54.274 50.593C54.274 52.609 51.925 54.247 49.027 54.247C46.129 54.247 43.78 52.609 43.78 50.593C43.7698 50.4612 43.7698 50.3288 43.78 50.197C43.6083 50.1167 43.4562 50.0001 43.3339 49.8554C43.2116 49.7106 43.1221 49.5411 43.0715 49.3585C43.0209 49.1759 43.0105 48.9845 43.041 48.7974C43.0714 48.6104 43.142 48.4322 43.2479 48.275C43.3537 48.1178 43.4924 47.9855 43.6543 47.887C43.8162 47.7885 43.9975 47.7262 44.1857 47.7045C44.3739 47.6827 44.5647 47.702 44.7448 47.7609C44.9248 47.8199 45.09 47.9171 45.229 48.046C46.266 47.3427 47.4861 46.9579 48.739 46.939L49.405 43.816C49.4124 43.7798 49.427 43.7455 49.4479 43.7151C49.4687 43.6846 49.4954 43.6585 49.5264 43.6384C49.5573 43.6184 49.592 43.6046 49.6283 43.598C49.6646 43.5914 49.7019 43.5921 49.738 43.6L51.943 44.041C52.0507 43.856 52.2207 43.7154 52.4227 43.6445C52.6247 43.5736 52.8453 43.5771 53.045 43.6542C53.2447 43.7313 53.4104 43.8771 53.5123 44.0653C53.6142 44.2536 53.6457 44.472 53.601 44.6813C53.5564 44.8907 53.4386 45.0773 53.2688 45.2076C53.099 45.338 52.8883 45.4035 52.6746 45.3925C52.4608 45.3815 52.2579 45.2947 52.1024 45.1476C51.9469 45.0005 51.8489 44.8028 51.826 44.59L49.9 44.185L49.315 46.993C50.5527 47.0196 51.7561 47.404 52.78 48.1C52.9166 47.9686 53.0802 47.8683 53.2593 47.8061C53.4384 47.7439 53.6288 47.7212 53.8175 47.7396C54.0062 47.758 54.1887 47.817 54.3524 47.9126C54.5162 48.0082 54.6572 48.1382 54.766 48.2935ZM46.1545 49.3997C46.0888 49.498 46.0431 49.6083 46.02 49.7243C45.9969 49.8402 45.9969 49.9596 46.02 50.0755C46.0665 50.3097 46.2042 50.5158 46.4027 50.6485C46.6012 50.7812 46.8443 50.8296 47.0785 50.783C47.1945 50.7599 47.3047 50.7143 47.4031 50.6486C47.5014 50.5829 47.5858 50.4985 47.6515 50.4002C47.7841 50.2017 47.8325 49.9586 47.786 49.7245C47.7394 49.4903 47.6017 49.2842 47.4032 49.1515C47.2047 49.0188 46.9616 48.9704 46.7274 49.017C46.4932 49.0636 46.2871 49.2012 46.1545 49.3997ZM49.009 53.068C49.8077 53.101 50.5937 52.8925 51.232 52.411C51.2797 52.3645 51.307 52.3009 51.3078 52.2342C51.3087 52.1675 51.283 52.1032 51.2365 52.0555C51.2134 52.0319 51.1859 52.013 51.1556 52C51.1253 51.987 51.0927 51.98 51.0597 51.9796C50.993 51.9788 50.9287 52.0045 50.881 52.051C50.3348 52.4428 49.6712 52.6365 49 52.6C48.3296 52.63 47.6691 52.4299 47.128 52.033C47.0813 51.9947 47.0221 51.9752 46.9619 51.9781C46.9016 51.9811 46.8446 52.0064 46.802 52.049C46.7593 52.0917 46.7341 52.1487 46.7311 52.2089C46.7281 52.2692 46.7477 52.3284 46.786 52.375C47.4245 52.8562 48.2101 53.1011 49.009 53.068ZM50.5697 50.6845C50.7182 50.7835 50.8832 50.872 51.061 50.872C51.183 50.8734 51.3041 50.85 51.4168 50.8031C51.5295 50.7562 51.6315 50.6869 51.7166 50.5993C51.8016 50.5117 51.8679 50.4078 51.9115 50.2937C51.9551 50.1797 51.975 50.058 51.97 49.936C51.9699 49.7805 51.9296 49.6277 51.8529 49.4925C51.7763 49.3573 51.6659 49.2442 51.5325 49.1643C51.3991 49.0844 51.2474 49.0404 51.092 49.0366C50.9365 49.0328 50.7828 49.0693 50.6457 49.1426C50.5086 49.2159 50.3928 49.3235 50.3096 49.4548C50.2265 49.5861 50.1787 49.7368 50.1711 49.892C50.1634 50.0473 50.1961 50.2019 50.266 50.3408C50.3358 50.4797 50.4405 50.5981 50.5697 50.6845Z" fill="white"/>
</g>
<g clip-path="url(#clip3_1_771)">
<path d="M9.82125 95.0355C9.198 93.8081 8.46675 92.5684 7.03912 92.5684C6.76687 92.5684 6.49463 92.6134 6.24375 92.7281L5.76 91.7573C6.35063 91.251 7.30463 90.8483 8.532 90.8483C10.4411 90.8483 11.421 91.7685 12.1995 92.9408C12.6607 91.9395 12.8801 90.5861 12.8801 88.9088C12.8801 84.7193 11.5695 82.5683 8.5095 82.5683C5.4945 82.5683 4.19062 84.7193 4.19062 88.9088C4.19062 93.0758 5.4945 95.2043 8.51062 95.2043C8.98875 95.2043 9.423 95.1525 9.82238 95.0355H9.82125ZM10.5694 96.498C9.89793 96.6784 9.20587 96.7706 8.51062 96.7725C4.49325 96.7725 0.5625 93.5685 0.5625 88.9088C0.5625 84.2051 4.49438 81 8.5095 81C12.5933 81 16.4858 84.1815 16.4858 88.9088C16.4858 91.5379 15.2595 93.6743 13.4764 95.0558C14.0524 95.9186 14.6464 96.4924 15.471 96.4924C16.3733 96.4924 16.7366 95.7949 16.7974 95.2493H17.9708C18.0394 95.9771 17.676 99 14.3955 99C12.4076 99 11.358 97.848 10.5705 96.498H10.5694Z" fill="white"/>
</g>
<g clip-path="url(#clip4_1_771)">
<path d="M57.6249 85.8806C57.523 85.517 57.3245 85.1878 57.0504 84.9281C56.7686 84.6603 56.4233 84.4688 56.0469 84.3716C54.6384 84.0003 48.9954 84.0003 48.9954 84.0003C46.6429 83.9735 44.291 84.0913 41.9529 84.3528C41.5766 84.4572 41.2318 84.653 40.9494 84.9228C40.6719 85.1898 40.4709 85.5191 40.3659 85.8798C40.1137 87.2386 39.9911 88.6183 39.9999 90.0003C39.9909 91.3811 40.1132 92.7603 40.3659 94.1208C40.4687 94.4801 40.6689 94.8078 40.9472 95.0726C41.2254 95.3373 41.5719 95.5286 41.9529 95.6298C43.3802 96.0003 48.9954 96.0003 48.9954 96.0003C51.3509 96.0271 53.7058 95.9094 56.0469 95.6478C56.4233 95.5506 56.7686 95.359 57.0504 95.0913C57.3244 94.8316 57.5227 94.5024 57.6242 94.1388C57.883 92.7805 58.0088 91.4002 57.9999 90.0176C58.0194 88.629 57.8937 87.2422 57.6249 85.8798V85.8806ZM47.2014 92.5683V87.4331L51.8964 90.0011L47.2014 92.5683Z" fill="white"/>
</g>
<defs>
<clipPath id="clip0_1_771">
<rect width="18" height="18" fill="white"/>
</clipPath>
<clipPath id="clip1_1_771">
<rect width="18" height="18" fill="white" transform="translate(40)"/>
</clipPath>
<clipPath id="clip2_1_771">
<rect width="18" height="18" fill="white" transform="translate(40 40)"/>
</clipPath>
<clipPath id="clip3_1_771">
<rect width="18" height="18" fill="white" transform="translate(0 81)"/>
</clipPath>
<clipPath id="clip4_1_771">
<rect width="18" height="18" fill="white" transform="translate(40 81)"/>
</clipPath>
</defs>
</svg>
