<svg width="170" height="250" viewBox="0 0 170 250" fill="none" xmlns="http://www.w3.org/2000/svg">
<path d="M11.6164 213.574C2.47079 224.023 0.0614623 242.212 0 250H154.516C149.907 234.363 120.405 198.856 117.823 194.257C115.242 189.657 121.327 179.539 124.092 175.492C126.858 171.444 126.121 172.18 127.78 162.062C129.44 151.943 133.312 154.703 146.588 155.255C159.864 155.807 161.339 146.976 160.97 137.778C160.601 128.579 163.182 132.626 165.026 127.659C166.501 123.685 165.641 119.258 165.026 117.541C166.87 114.229 166.87 110.734 163.182 106.686C161.339 100.799 161.707 101.167 166.87 97.4879C177.38 88.8413 158.204 80.3786 156.36 78.7228C154.516 77.0671 151.382 74.4915 156.36 70.4441C161.339 66.3967 158.573 62.5334 156.36 58.302C154.148 54.0707 146.772 42.4806 138.843 29.9705C138.29 17.4604 125.014 11.5734 113.582 4.76649C102.15 -2.04045 91.4559 -1.12059 62.1384 4.76649C32.8209 10.6536 31.3458 24.4514 20.8357 42.4806C10.3257 60.5097 15.1197 67.1327 17.8855 74.4915C21.3889 107.422 38.5369 123.428 44.0685 132.626C49.6001 141.825 48.8625 142.377 48.8625 143.665V151.208C39.6432 152.495 40.5651 158.382 38.5369 165.189C34.8491 171.996 36.693 172.548 38.5369 177.147C36.693 189.473 23.0484 200.512 11.6164 213.574Z" fill="#4A2A8A"/>
</svg>
